<mxfile host="app.diagrams.net" modified="2023-09-24T13:55:00.784Z" agent="Mozilla/5.0 (Windows NT 10.0; Win64; x64) AppleWebKit/537.36 (KHTML, like Gecko) Chrome/117.0.0.0 Safari/537.36 Edg/117.0.2045.36" etag="G0d9-jvaUm45IF_org8S" version="21.8.1" type="device" pages="2">
  <diagram id="ewRGckBVOk3iqe9JeWDF" name="1">
    <mxGraphModel dx="431" dy="774" grid="1" gridSize="10" guides="1" tooltips="1" connect="1" arrows="1" fold="1" page="1" pageScale="1" pageWidth="827" pageHeight="1169" math="0" shadow="0">
      <root>
        <mxCell id="0" />
        <mxCell id="1" parent="0" />
        <mxCell id="S_Zhk84kwY3klK829ZPG-1" value="" style="rounded=0;whiteSpace=wrap;html=1;dashed=1;dashPattern=1 4;fillColor=#dae8fc;strokeColor=#6c8ebf;fontFamily=Helvetica;" vertex="1" parent="1">
          <mxGeometry x="950" y="120" width="600" height="610" as="geometry" />
        </mxCell>
        <mxCell id="S_Zhk84kwY3klK829ZPG-2" value="" style="rounded=1;whiteSpace=wrap;html=1;fillColor=#f8cecc;strokeColor=#b85450;" vertex="1" parent="1">
          <mxGeometry x="1140" y="330" width="404" height="120" as="geometry" />
        </mxCell>
        <mxCell id="S_Zhk84kwY3klK829ZPG-3" value="" style="rounded=0;whiteSpace=wrap;html=1;dashed=1;dashPattern=1 4;fillColor=#d5e8d4;strokeColor=#82b366;fontFamily=Helvetica;" vertex="1" parent="1">
          <mxGeometry x="950" y="740" width="600" height="340" as="geometry" />
        </mxCell>
        <mxCell id="S_Zhk84kwY3klK829ZPG-4" style="edgeStyle=orthogonalEdgeStyle;rounded=0;orthogonalLoop=1;jettySize=auto;html=1;entryX=0;entryY=0.5;entryDx=0;entryDy=0;exitX=0.5;exitY=1;exitDx=0;exitDy=0;fontFamily=Helvetica;" edge="1" parent="1" source="S_Zhk84kwY3klK829ZPG-5" target="S_Zhk84kwY3klK829ZPG-7">
          <mxGeometry relative="1" as="geometry" />
        </mxCell>
        <mxCell id="S_Zhk84kwY3klK829ZPG-5" value="docker installation" style="rounded=1;whiteSpace=wrap;html=1;fontSize=22;glass=0;strokeWidth=1;shadow=0;fontFamily=Helvetica;" vertex="1" parent="1">
          <mxGeometry x="970" y="260" width="160" height="80" as="geometry" />
        </mxCell>
        <mxCell id="S_Zhk84kwY3klK829ZPG-6" style="edgeStyle=orthogonalEdgeStyle;rounded=0;orthogonalLoop=1;jettySize=auto;html=1;exitX=1;exitY=0.5;exitDx=0;exitDy=0;entryX=0;entryY=0.5;entryDx=0;entryDy=0;fontFamily=Helvetica;" edge="1" parent="1" source="S_Zhk84kwY3klK829ZPG-7" target="S_Zhk84kwY3klK829ZPG-9">
          <mxGeometry relative="1" as="geometry" />
        </mxCell>
        <mxCell id="S_Zhk84kwY3klK829ZPG-7" value="pull image&lt;br&gt;&lt;i&gt;&lt;font style=&quot;font-size: 16px;&quot;&gt;fig 3A&lt;/font&gt;&lt;/i&gt;" style="rounded=1;whiteSpace=wrap;html=1;fontSize=22;glass=0;strokeWidth=1;shadow=0;align=center;fontFamily=Helvetica;" vertex="1" parent="1">
          <mxGeometry x="1150" y="360" width="160" height="80" as="geometry" />
        </mxCell>
        <mxCell id="S_Zhk84kwY3klK829ZPG-8" style="edgeStyle=orthogonalEdgeStyle;rounded=0;orthogonalLoop=1;jettySize=auto;html=1;exitX=0.5;exitY=1;exitDx=0;exitDy=0;entryX=0.5;entryY=0;entryDx=0;entryDy=0;fontFamily=Helvetica;" edge="1" parent="1" source="S_Zhk84kwY3klK829ZPG-9" target="S_Zhk84kwY3klK829ZPG-20">
          <mxGeometry relative="1" as="geometry" />
        </mxCell>
        <mxCell id="S_Zhk84kwY3klK829ZPG-9" value="run container&lt;br&gt;&lt;i style=&quot;border-color: var(--border-color);&quot;&gt;&lt;font style=&quot;font-size: 16px;&quot;&gt;fig 3B&lt;/font&gt;&lt;/i&gt;" style="rounded=1;whiteSpace=wrap;html=1;fontSize=22;glass=0;strokeWidth=1;shadow=0;align=center;fontFamily=Helvetica;" vertex="1" parent="1">
          <mxGeometry x="1350" y="360" width="160" height="80" as="geometry" />
        </mxCell>
        <mxCell id="S_Zhk84kwY3klK829ZPG-10" value="" style="image;sketch=0;aspect=fixed;html=1;points=[];align=center;fontSize=12;image=img/lib/mscae/VM_Images.svg;fontFamily=Helvetica;" vertex="1" parent="1">
          <mxGeometry x="1280" y="334.19" width="50" height="46" as="geometry" />
        </mxCell>
        <mxCell id="S_Zhk84kwY3klK829ZPG-11" value="" style="image;aspect=fixed;perimeter=ellipsePerimeter;html=1;align=center;fontSize=12;verticalAlign=top;fontColor=#364149;shadow=0;dashed=0;image=img/lib/cumulus/container.svg;fontFamily=Helvetica;" vertex="1" parent="1">
          <mxGeometry x="1490" y="334.19" width="51.54" height="45.81" as="geometry" />
        </mxCell>
        <mxCell id="S_Zhk84kwY3klK829ZPG-12" style="edgeStyle=orthogonalEdgeStyle;rounded=0;orthogonalLoop=1;jettySize=auto;html=1;exitX=0.5;exitY=1;exitDx=0;exitDy=0;fontFamily=Helvetica;" edge="1" parent="1" source="S_Zhk84kwY3klK829ZPG-16" target="S_Zhk84kwY3klK829ZPG-7">
          <mxGeometry relative="1" as="geometry" />
        </mxCell>
        <mxCell id="S_Zhk84kwY3klK829ZPG-13" value="&lt;font style=&quot;font-size: 20px;&quot;&gt;yes&lt;/font&gt;" style="edgeLabel;html=1;align=center;verticalAlign=middle;resizable=0;points=[];labelBackgroundColor=none;fontFamily=Helvetica;" vertex="1" connectable="0" parent="S_Zhk84kwY3klK829ZPG-12">
          <mxGeometry x="-0.0466" y="1" relative="1" as="geometry">
            <mxPoint x="27" y="-19" as="offset" />
          </mxGeometry>
        </mxCell>
        <mxCell id="S_Zhk84kwY3klK829ZPG-14" style="edgeStyle=orthogonalEdgeStyle;rounded=0;orthogonalLoop=1;jettySize=auto;html=1;entryX=0.5;entryY=0;entryDx=0;entryDy=0;exitX=0;exitY=0.5;exitDx=0;exitDy=0;fontFamily=Helvetica;" edge="1" parent="1" source="S_Zhk84kwY3klK829ZPG-16" target="S_Zhk84kwY3klK829ZPG-5">
          <mxGeometry relative="1" as="geometry">
            <mxPoint x="1124.0014285714283" y="160.00000000000023" as="sourcePoint" />
            <mxPoint x="1029.62" y="247" as="targetPoint" />
          </mxGeometry>
        </mxCell>
        <mxCell id="S_Zhk84kwY3klK829ZPG-15" value="&lt;font style=&quot;font-size: 20px;&quot;&gt;no&lt;/font&gt;" style="edgeLabel;html=1;align=center;verticalAlign=middle;resizable=0;points=[];labelBackgroundColor=none;fontFamily=Helvetica;" vertex="1" connectable="0" parent="S_Zhk84kwY3klK829ZPG-14">
          <mxGeometry x="-0.4842" y="3" relative="1" as="geometry">
            <mxPoint y="-20" as="offset" />
          </mxGeometry>
        </mxCell>
        <mxCell id="S_Zhk84kwY3klK829ZPG-16" value="&lt;ul style=&quot;box-sizing: border-box; border-width: 0px; border-style: solid; border-color: currentcolor; --tw-border-spacing-x: 0; --tw-border-spacing-y: 0; --tw-translate-x: 0; --tw-translate-y: 0; --tw-rotate: 0; --tw-skew-x: 0; --tw-skew-y: 0; --tw-scale-x: 1; --tw-scale-y: 1; --tw-pan-x: ; --tw-pan-y: ; --tw-pinch-zoom: ; --tw-scroll-snap-strictness: proximity; --tw-gradient-from-position: ; --tw-gradient-via-position: ; --tw-gradient-to-position: ; --tw-ordinal: ; --tw-slashed-zero: ; --tw-numeric-figure: ; --tw-numeric-spacing: ; --tw-numeric-fraction: ; --tw-ring-inset: ; --tw-ring-offset-width: 0px; --tw-ring-offset-color: #fff; --tw-ring-color: rgb(0 125 178 / 0.5); --tw-ring-offset-shadow: 0 0 #0000; --tw-ring-shadow: 0 0 #0000; --tw-shadow: 0 0 #0000; --tw-shadow-colored: 0 0 #0000; --tw-blur: ; --tw-brightness: ; --tw-contrast: ; --tw-grayscale: ; --tw-hue-rotate: ; --tw-invert: ; --tw-saturate: ; --tw-sepia: ; --tw-drop-shadow: ; --tw-backdrop-blur: ; --tw-backdrop-brightness: ; --tw-backdrop-contrast: ; --tw-backdrop-grayscale: ; --tw-backdrop-hue-rotate: ; --tw-backdrop-invert: ; --tw-backdrop-opacity: ; --tw-backdrop-saturate: ; --tw-backdrop-sepia: ; list-style: none; margin: 0px; padding: 0px; color: rgb(27, 30, 37); font-size: 26px; background-color: rgb(255, 255, 255);&quot; aria-labelledby=&quot;alternatives-heading&quot;&gt;&lt;li style=&quot;box-sizing: border-box; border-width: 0px; border-style: solid; border-color: currentcolor; --tw-border-spacing-x: 0; --tw-border-spacing-y: 0; --tw-translate-x: 0; --tw-translate-y: 0; --tw-rotate: 0; --tw-skew-x: 0; --tw-skew-y: 0; --tw-scale-x: 1; --tw-scale-y: 1; --tw-pan-x: ; --tw-pan-y: ; --tw-pinch-zoom: ; --tw-scroll-snap-strictness: proximity; --tw-gradient-from-position: ; --tw-gradient-via-position: ; --tw-gradient-to-position: ; --tw-ordinal: ; --tw-slashed-zero: ; --tw-numeric-figure: ; --tw-numeric-spacing: ; --tw-numeric-fraction: ; --tw-ring-inset: ; --tw-ring-offset-width: 0px; --tw-ring-offset-color: #fff; --tw-ring-color: rgb(0 125 178 / 0.5); --tw-ring-offset-shadow: 0 0 #0000; --tw-ring-shadow: 0 0 #0000; --tw-shadow: 0 0 #0000; --tw-shadow-colored: 0 0 #0000; --tw-blur: ; --tw-brightness: ; --tw-contrast: ; --tw-grayscale: ; --tw-hue-rotate: ; --tw-invert: ; --tw-saturate: ; --tw-sepia: ; --tw-drop-shadow: ; --tw-backdrop-blur: ; --tw-backdrop-brightness: ; --tw-backdrop-contrast: ; --tw-backdrop-grayscale: ; --tw-backdrop-hue-rotate: ; --tw-backdrop-invert: ; --tw-backdrop-opacity: ; --tw-backdrop-saturate: ; --tw-backdrop-sepia: ; padding-left: 15px; padding-right: 40px; margin-left: -15px; margin-right: -40px; pointer-events: initial; cursor: initial; list-style-type: none; font-size: 22px;&quot; data-testid=&quot;translator-target-result-as-text-entry&quot; class=&quot;lmt__translations_as_text__item&quot;&gt;&lt;div style=&quot;&quot;&gt;&lt;span style=&quot;background-color: rgba(0, 0, 0, 0); color: rgb(0, 0, 0); font-size: inherit;&quot;&gt;Is docker&lt;/span&gt;&lt;/div&gt;&lt;button style=&quot;border-width: initial; border-style: none; border-color: initial; --tw-border-spacing-x: 0; --tw-border-spacing-y: 0; --tw-translate-x: 0; --tw-translate-y: 0; --tw-rotate: 0; --tw-skew-x: 0; --tw-skew-y: 0; --tw-scale-x: 1; --tw-scale-y: 1; --tw-pan-x: ; --tw-pan-y: ; --tw-pinch-zoom: ; --tw-scroll-snap-strictness: proximity; --tw-gradient-from-position: ; --tw-gradient-via-position: ; --tw-gradient-to-position: ; --tw-ordinal: ; --tw-slashed-zero: ; --tw-numeric-figure: ; --tw-numeric-spacing: ; --tw-numeric-fraction: ; --tw-ring-inset: ; --tw-ring-offset-width: 0px; --tw-ring-offset-color: #fff; --tw-ring-color: rgb(0 125 178 / 0.5); --tw-ring-offset-shadow: 0 0 #0000; --tw-ring-shadow: 0 0 #0000; --tw-shadow: 0 0 #0000; --tw-shadow-colored: 0 0 #0000; --tw-blur: ; --tw-brightness: ; --tw-contrast: ; --tw-grayscale: ; --tw-hue-rotate: ; --tw-invert: ; --tw-saturate: ; --tw-sepia: ; --tw-drop-shadow: ; --tw-backdrop-blur: ; --tw-backdrop-brightness: ; --tw-backdrop-contrast: ; --tw-backdrop-grayscale: ; --tw-backdrop-hue-rotate: ; --tw-backdrop-invert: ; --tw-backdrop-opacity: ; --tw-backdrop-saturate: ; --tw-backdrop-sepia: ; font-feature-settings: inherit; font-variation-settings: inherit; font-weight: 400; line-height: inherit; color: rgb(0, 0, 0); margin: 0px; padding: 0px; appearance: button; background-color: rgba(0, 0, 0, 0); cursor: pointer; pointer-events: initial;&quot; aria-description=&quot;点击并应用&quot; lang=&quot;en-US&quot; class=&quot;lmt__translations_as_text__text_btn&quot;&gt;&lt;div style=&quot;&quot;&gt;&lt;span style=&quot;background-color: rgba(0, 0, 0, 0); font-size: inherit;&quot;&gt;&lt;font&gt;installed?&lt;/font&gt;&lt;/span&gt;&lt;/div&gt;&lt;/button&gt;&lt;/li&gt;&lt;/ul&gt;" style="rhombus;whiteSpace=wrap;html=1;shadow=0;fontFamily=Helvetica;fontSize=22;align=center;strokeWidth=1;spacing=6;spacingTop=-4;fillColor=default;gradientColor=none;fillStyle=auto;" vertex="1" parent="1">
          <mxGeometry x="1140" y="130" width="180" height="140" as="geometry" />
        </mxCell>
        <mxCell id="S_Zhk84kwY3klK829ZPG-17" style="edgeStyle=orthogonalEdgeStyle;rounded=0;orthogonalLoop=1;jettySize=auto;html=1;exitX=0;exitY=0.5;exitDx=0;exitDy=0;fontFamily=Helvetica;" edge="1" parent="1" source="S_Zhk84kwY3klK829ZPG-20" target="S_Zhk84kwY3klK829ZPG-22">
          <mxGeometry relative="1" as="geometry" />
        </mxCell>
        <mxCell id="S_Zhk84kwY3klK829ZPG-18" value="&lt;font style=&quot;font-size: 20px;&quot;&gt;yes&lt;/font&gt;" style="edgeLabel;html=1;align=center;verticalAlign=middle;resizable=0;points=[];labelBackgroundColor=none;fontFamily=Helvetica;" vertex="1" connectable="0" parent="S_Zhk84kwY3klK829ZPG-17">
          <mxGeometry x="-0.6299" y="-2" relative="1" as="geometry">
            <mxPoint y="-18" as="offset" />
          </mxGeometry>
        </mxCell>
        <mxCell id="S_Zhk84kwY3klK829ZPG-19" style="edgeStyle=orthogonalEdgeStyle;rounded=0;orthogonalLoop=1;jettySize=auto;html=1;exitX=1;exitY=0.5;exitDx=0;exitDy=0;entryX=0.5;entryY=0;entryDx=0;entryDy=0;fontFamily=Helvetica;" edge="1" parent="1" source="S_Zhk84kwY3klK829ZPG-20" target="S_Zhk84kwY3klK829ZPG-24">
          <mxGeometry relative="1" as="geometry" />
        </mxCell>
        <mxCell id="S_Zhk84kwY3klK829ZPG-20" value="&lt;ul style=&quot;box-sizing: border-box; border-width: 0px; border-style: solid; border-color: currentcolor; --tw-border-spacing-x: 0; --tw-border-spacing-y: 0; --tw-translate-x: 0; --tw-translate-y: 0; --tw-rotate: 0; --tw-skew-x: 0; --tw-skew-y: 0; --tw-scale-x: 1; --tw-scale-y: 1; --tw-pan-x: ; --tw-pan-y: ; --tw-pinch-zoom: ; --tw-scroll-snap-strictness: proximity; --tw-gradient-from-position: ; --tw-gradient-via-position: ; --tw-gradient-to-position: ; --tw-ordinal: ; --tw-slashed-zero: ; --tw-numeric-figure: ; --tw-numeric-spacing: ; --tw-numeric-fraction: ; --tw-ring-inset: ; --tw-ring-offset-width: 0px; --tw-ring-offset-color: #fff; --tw-ring-color: rgb(0 125 178 / 0.5); --tw-ring-offset-shadow: 0 0 #0000; --tw-ring-shadow: 0 0 #0000; --tw-shadow: 0 0 #0000; --tw-shadow-colored: 0 0 #0000; --tw-blur: ; --tw-brightness: ; --tw-contrast: ; --tw-grayscale: ; --tw-hue-rotate: ; --tw-invert: ; --tw-saturate: ; --tw-sepia: ; --tw-drop-shadow: ; --tw-backdrop-blur: ; --tw-backdrop-brightness: ; --tw-backdrop-contrast: ; --tw-backdrop-grayscale: ; --tw-backdrop-hue-rotate: ; --tw-backdrop-invert: ; --tw-backdrop-opacity: ; --tw-backdrop-saturate: ; --tw-backdrop-sepia: ; list-style: none; margin: 0px; padding: 0px; color: rgb(27, 30, 37); font-size: 26px; background-color: rgb(255, 255, 255);&quot; aria-labelledby=&quot;alternatives-heading&quot;&gt;&lt;li style=&quot;box-sizing: border-box; border-width: 0px; border-style: solid; border-color: currentcolor; --tw-border-spacing-x: 0; --tw-border-spacing-y: 0; --tw-translate-x: 0; --tw-translate-y: 0; --tw-rotate: 0; --tw-skew-x: 0; --tw-skew-y: 0; --tw-scale-x: 1; --tw-scale-y: 1; --tw-pan-x: ; --tw-pan-y: ; --tw-pinch-zoom: ; --tw-scroll-snap-strictness: proximity; --tw-gradient-from-position: ; --tw-gradient-via-position: ; --tw-gradient-to-position: ; --tw-ordinal: ; --tw-slashed-zero: ; --tw-numeric-figure: ; --tw-numeric-spacing: ; --tw-numeric-fraction: ; --tw-ring-inset: ; --tw-ring-offset-width: 0px; --tw-ring-offset-color: #fff; --tw-ring-color: rgb(0 125 178 / 0.5); --tw-ring-offset-shadow: 0 0 #0000; --tw-ring-shadow: 0 0 #0000; --tw-shadow: 0 0 #0000; --tw-shadow-colored: 0 0 #0000; --tw-blur: ; --tw-brightness: ; --tw-contrast: ; --tw-grayscale: ; --tw-hue-rotate: ; --tw-invert: ; --tw-saturate: ; --tw-sepia: ; --tw-drop-shadow: ; --tw-backdrop-blur: ; --tw-backdrop-brightness: ; --tw-backdrop-contrast: ; --tw-backdrop-grayscale: ; --tw-backdrop-hue-rotate: ; --tw-backdrop-invert: ; --tw-backdrop-opacity: ; --tw-backdrop-saturate: ; --tw-backdrop-sepia: ; padding-left: 15px; padding-right: 40px; margin-left: -15px; margin-right: -40px; pointer-events: initial; cursor: initial; list-style-type: none; font-size: 22px;&quot; data-testid=&quot;translator-target-result-as-text-entry&quot; class=&quot;lmt__translations_as_text__item&quot;&gt;&lt;div style=&quot;&quot;&gt;&lt;ul style=&quot;border-color: currentcolor; color: rgb(0, 0, 0); box-sizing: border-box; border-width: 0px; border-style: solid; --tw-border-spacing-x: 0; --tw-border-spacing-y: 0; --tw-translate-x: 0; --tw-translate-y: 0; --tw-rotate: 0; --tw-skew-x: 0; --tw-skew-y: 0; --tw-scale-x: 1; --tw-scale-y: 1; --tw-pan-x: ; --tw-pan-y: ; --tw-pinch-zoom: ; --tw-scroll-snap-strictness: proximity; --tw-gradient-from-position: ; --tw-gradient-via-position: ; --tw-gradient-to-position: ; --tw-ordinal: ; --tw-slashed-zero: ; --tw-numeric-figure: ; --tw-numeric-spacing: ; --tw-numeric-fraction: ; --tw-ring-inset: ; --tw-ring-offset-width: 0px; --tw-ring-offset-color: #fff; --tw-ring-color: rgb(0 125 178 / 0.5); --tw-ring-offset-shadow: 0 0 #0000; --tw-ring-shadow: 0 0 #0000; --tw-shadow: 0 0 #0000; --tw-shadow-colored: 0 0 #0000; --tw-blur: ; --tw-brightness: ; --tw-contrast: ; --tw-grayscale: ; --tw-hue-rotate: ; --tw-invert: ; --tw-saturate: ; --tw-sepia: ; --tw-drop-shadow: ; --tw-backdrop-blur: ; --tw-backdrop-brightness: ; --tw-backdrop-contrast: ; --tw-backdrop-grayscale: ; --tw-backdrop-hue-rotate: ; --tw-backdrop-invert: ; --tw-backdrop-opacity: ; --tw-backdrop-saturate: ; --tw-backdrop-sepia: ; list-style: none; margin: 0px; padding: 0px; font-size: 26px;&quot; aria-labelledby=&quot;alternatives-heading&quot;&gt;&lt;li style=&quot;border-color: currentcolor; box-sizing: border-box; border-width: 0px; border-style: solid; --tw-border-spacing-x: 0; --tw-border-spacing-y: 0; --tw-translate-x: 0; --tw-translate-y: 0; --tw-rotate: 0; --tw-skew-x: 0; --tw-skew-y: 0; --tw-scale-x: 1; --tw-scale-y: 1; --tw-pan-x: ; --tw-pan-y: ; --tw-pinch-zoom: ; --tw-scroll-snap-strictness: proximity; --tw-gradient-from-position: ; --tw-gradient-via-position: ; --tw-gradient-to-position: ; --tw-ordinal: ; --tw-slashed-zero: ; --tw-numeric-figure: ; --tw-numeric-spacing: ; --tw-numeric-fraction: ; --tw-ring-inset: ; --tw-ring-offset-width: 0px; --tw-ring-offset-color: #fff; --tw-ring-color: rgb(0 125 178 / 0.5); --tw-ring-offset-shadow: 0 0 #0000; --tw-ring-shadow: 0 0 #0000; --tw-shadow: 0 0 #0000; --tw-shadow-colored: 0 0 #0000; --tw-blur: ; --tw-brightness: ; --tw-contrast: ; --tw-grayscale: ; --tw-hue-rotate: ; --tw-invert: ; --tw-saturate: ; --tw-sepia: ; --tw-drop-shadow: ; --tw-backdrop-blur: ; --tw-backdrop-brightness: ; --tw-backdrop-contrast: ; --tw-backdrop-grayscale: ; --tw-backdrop-hue-rotate: ; --tw-backdrop-invert: ; --tw-backdrop-opacity: ; --tw-backdrop-saturate: ; --tw-backdrop-sepia: ; padding-left: 15px; padding-right: 40px; margin-left: -15px; margin-right: -40px; pointer-events: initial; cursor: initial; list-style-type: none; font-size: 22px;&quot; data-testid=&quot;translator-target-result-as-text-entry&quot; class=&quot;lmt__translations_as_text__item&quot;&gt;Are you a&lt;br style=&quot;border-color: var(--border-color);&quot;&gt;tech savy?&lt;/li&gt;&lt;/ul&gt;&lt;/div&gt;&lt;/li&gt;&lt;/ul&gt;" style="rhombus;whiteSpace=wrap;html=1;shadow=0;fontFamily=Helvetica;fontSize=22;align=center;strokeWidth=1;spacing=6;spacingTop=-4;" vertex="1" parent="1">
          <mxGeometry x="1140.91" y="490" width="180" height="140" as="geometry" />
        </mxCell>
        <mxCell id="S_Zhk84kwY3klK829ZPG-21" style="edgeStyle=orthogonalEdgeStyle;rounded=0;orthogonalLoop=1;jettySize=auto;html=1;exitX=1;exitY=0.5;exitDx=0;exitDy=0;entryX=0;entryY=0.5;entryDx=0;entryDy=0;fontFamily=Helvetica;" edge="1" parent="1" source="S_Zhk84kwY3klK829ZPG-22" target="S_Zhk84kwY3klK829ZPG-24">
          <mxGeometry relative="1" as="geometry" />
        </mxCell>
        <mxCell id="S_Zhk84kwY3klK829ZPG-22" value="test drive&lt;br style=&quot;border-color: var(--border-color);&quot;&gt;&lt;i style=&quot;border-color: var(--border-color);&quot;&gt;&lt;font style=&quot;border-color: var(--border-color); font-size: 11px;&quot;&gt;dockerHDDM_primer.ipynb&lt;/font&gt;&lt;/i&gt;" style="rounded=1;whiteSpace=wrap;html=1;fontSize=22;glass=0;strokeWidth=1;shadow=0;align=center;fontFamily=Helvetica;" vertex="1" parent="1">
          <mxGeometry x="990" y="640" width="160" height="80" as="geometry" />
        </mxCell>
        <mxCell id="S_Zhk84kwY3klK829ZPG-23" style="edgeStyle=orthogonalEdgeStyle;rounded=0;orthogonalLoop=1;jettySize=auto;html=1;exitX=0.5;exitY=1;exitDx=0;exitDy=0;curved=1;fontFamily=Helvetica;" edge="1" parent="1" source="S_Zhk84kwY3klK829ZPG-24">
          <mxGeometry relative="1" as="geometry">
            <mxPoint x="1230" y="750" as="targetPoint" />
            <Array as="points">
              <mxPoint x="1391" y="730" />
              <mxPoint x="1230" y="730" />
            </Array>
          </mxGeometry>
        </mxCell>
        <mxCell id="S_Zhk84kwY3klK829ZPG-24" value="deep dive&lt;br style=&quot;border-color: var(--border-color);&quot;&gt;&lt;i style=&quot;border-color: var(--border-color);&quot;&gt;&lt;font style=&quot;border-color: var(--border-color); font-size: 11px;&quot;&gt;dockerHDDM_workflow.ipynb&lt;/font&gt;&lt;/i&gt;" style="rounded=1;whiteSpace=wrap;html=1;fontSize=22;glass=0;strokeWidth=1;shadow=0;align=center;fontFamily=Helvetica;" vertex="1" parent="1">
          <mxGeometry x="1311" y="640" width="160" height="80" as="geometry" />
        </mxCell>
        <mxCell id="S_Zhk84kwY3klK829ZPG-25" value="&lt;font style=&quot;font-size: 20px;&quot;&gt;no&lt;br&gt;&lt;/font&gt;" style="edgeLabel;html=1;align=center;verticalAlign=middle;resizable=0;points=[];labelBackgroundColor=none;fontFamily=Helvetica;" vertex="1" connectable="0" parent="1">
          <mxGeometry x="1350.0018181818182" y="535" as="geometry">
            <mxPoint x="2" y="5" as="offset" />
          </mxGeometry>
        </mxCell>
        <mxCell id="S_Zhk84kwY3klK829ZPG-26" value="" style="shape=image;html=1;verticalAlign=top;verticalLabelPosition=bottom;labelBackgroundColor=#ffffff;imageAspect=0;aspect=fixed;image=https://cdn1.iconfinder.com/data/icons/social-media-2106/24/social_media_social_media_logo_docker-128.png;fontFamily=Helvetica;" vertex="1" parent="1">
          <mxGeometry x="1330" y="160" width="70" height="70" as="geometry" />
        </mxCell>
        <mxCell id="S_Zhk84kwY3klK829ZPG-27" value="" style="shape=image;verticalLabelPosition=bottom;labelBackgroundColor=default;verticalAlign=top;aspect=fixed;imageAspect=0;image=data:image/svg+xml,PHN2ZyB4bWxuczp4bGluaz0iaHR0cDovL3d3dy53My5vcmcvMTk5OS94bGluayIgeG1sbnM9Imh0dHA6Ly93d3cudzMub3JnLzIwMDAvc3ZnIiBoZWlnaHQ9IjIwMCIgd2lkdGg9IjIwMCIgaWQ9Im14X25fMTY5NTU0MDM5MTY1OSIgdmVyc2lvbj0iMS4xIiB2aWV3Qm94PSIwIDAgMTAyNCAxMDI0IiBjbGFzcz0iaWNvbiI+PHBhdGggZmlsbD0iI0Y1N0MwMCIgZD0iTTg4NC43MzYgMzM2LjM4NGMtNTguODgtMTUwLjAxNi0yMDQuOC0yNTYuNTEyLTM3NS44MDgtMjU2LjUxMnMtMzE3LjQ0IDEwNi40OTYtMzc2LjMyIDI1Ni41MTJDMjM1LjUyIDI1My45NTIgMzY2LjA4IDIwNC44IDUwOC40MTYgMjA0LjhjMTQyLjMzNiAwIDI3Mi44OTYgNDkuMTUyIDM3Ni4zMiAxMzEuNTg0eiBtLTM3Ni4zMiA0MzIuNjRjLTE0MC4yODggMC0yNjkuMzEyLTQ4LjEyOC0zNzEuNzEyLTEyOC41MTIgNjEuNDQgMTQ0Ljg5NiAyMDQuOCAyNDYuNzg0IDM3Mi4yMjQgMjQ2Ljc4NHMzMTAuNzg0LTEwMS44ODggMzcyLjIyNC0yNDYuNzg0Yy0xMDIuOTEyIDgwLjg5Ni0yMzIuNDQ4IDEyOC41MTItMzcyLjczNiAxMjguNTEyeiIvPjxwYXRoIGZpbGw9IiM5RkEwQTAiIGQ9Ik05OC4zMDQgMTQzLjg3MmMwIDI0LjU3NiAxOS45NjggNDQuNTQ0IDQ0LjU0NCA0NC41NDRzNDQuNTQ0LTE5Ljk2OCA0NC41NDQtNDQuNTQ0YzAtMjQuNTc2LTE5Ljk2OC00NC41NDQtNDQuNTQ0LTQ0LjU0NHMtNDQuNTQ0IDE5Ljk2OC00NC41NDQgNDQuNTQ0ek03NDMuOTM2IDYyLjk3NmMwIDMzLjc5MiAyNy4xMzYgNjAuOTI4IDYwLjkyOCA2MC45MjggMzMuNzkyIDAgNjAuOTI4LTI3LjEzNiA2MC45MjgtNjAuOTI4UzgzOC42NTYgMi4wNDggODA0Ljg2NCAyLjA0OGMtMzMuNzkyIDAtNjAuOTI4IDI3LjEzNi02MC45MjggNjAuOTI4ek0xMjYuNDY0IDk0My42MTZjMCA0My4wMDggMzQuODE2IDc4LjMzNiA3OC4zMzYgNzguMzM2czc4LjMzNi0zNC44MTYgNzguMzM2LTc4LjMzNmMwLTQzLjAwOC0zNC44MTYtNzguMzM2LTc4LjMzNi03OC4zMzZzLTc4LjMzNiAzNS4zMjgtNzguMzM2IDc4LjMzNnoiLz48cGF0aCBkPSJNMTA4LjAzMiAzNjAuNDQ4aDk4LjgxNnYxMS4yNjRoLTEzLjgyNGMtNS42MzIgMC05LjcyOCAxLjAyNC0xMS43NzYgMy4wNzItMi41NiAyLjA0OC0zLjU4NCA1LjEyLTMuNTg0IDguNzA0djE0NC44OTZjMCAxMS4yNjQtMi41NiAyMS41MDQtOC4xOTIgMzAuMjA4LTUuNjMyIDkuMjE2LTEzLjMxMiAxNi4zODQtMjQuMDY0IDIxLjUwNC0xMC4yNCA1LjEyLTIyLjUyOCA4LjE5Mi0zNS4zMjggOC4xOTItMTcuOTIgMC0zMi43NjgtNS4xMi00NC4wMzItMTUuODcyLTExLjI2NC0xMC43NTItMTYuODk2LTIzLjU1Mi0xNi44OTYtMzguNCAwLTExLjI2NCAzLjA3Mi0yMC40OCA4LjcwNC0yNy4xMzYgNS42MzItNi42NTYgMTIuOC0xMC4yNCAyMC45OTItMTAuMjQgNi42NTYgMCAxMi4yODggMi4wNDggMTYuODk2IDYuNjU2IDQuNjA4IDQuNjA4IDYuNjU2IDkuNzI4IDYuNjU2IDE2Ljg5NiAwIDUuNjMyLTIuMDQ4IDEwLjc1Mi01LjYzMiAxNC44NDhzLTcuNjggNi4xNDQtMTIuOCA2LjE0NGMtMi4wNDggMC00LjA5Ni0wLjUxMi03LjY4LTEuNTM2LTIuNTYtMS4wMjQtNC42MDgtMS4wMjQtNS42MzItMS4wMjQtMS41MzYgMC0zLjA3MiAwLjUxMi00LjA5NiAyLjA0OC0xLjAyNCAxLjUzNi0xLjUzNiAzLjU4NC0xLjUzNiA2LjE0NCAwIDcuNjggMy41ODQgMTQuMzM2IDExLjI2NCAyMC40OCA3LjY4IDYuMTQ0IDE2Ljg5NiA5LjIxNiAyOC4xNiA5LjIxNiAxMi44IDAgMjIuNTI4LTQuNjA4IDI5LjY5Ni0xMy4zMTJzMTAuNzUyLTIwLjk5MiAxMC43NTItMzYuMzUydi0xNDMuMzZjMC00LjA5Ni0xLjUzNi02LjY1Ni00LjA5Ni04LjcwNC0yLjU2LTIuMDQ4LTcuMTY4LTMuMDcyLTEzLjgyNC0zLjA3MmgtMTkuOTY4bDEuMDI0LTExLjI2NHpNMjcxLjM2IDQzOS44MDhjMi4wNDggMTAuNzUyIDMuNTg0IDIwLjk5MiA0LjA5NiAzMC43MiA3LjE2OC0xMS4yNjQgMTQuMzM2LTE4Ljk0NCAyMi4wMTYtMjMuNTUyIDcuNjgtNC42MDggMTYuMzg0LTcuMTY4IDI1LjA4OC03LjE2OCA5LjcyOCAwIDE4Ljk0NCAzLjA3MiAyNy42NDggOC43MDQgOC43MDQgNi4xNDQgMTUuODcyIDE0Ljg0OCAyMS41MDQgMjYuMTEyczguMTkyIDI0LjU3NiA4LjE5MiAzOC45MTJjMCAyMy4wNC02LjY1NiA0MS45ODQtMTkuOTY4IDU2LjMyLTExLjI2NCAxMi4yODgtMjQuNTc2IDE3LjkyLTM5LjkzNiAxNy45Mi04LjcwNCAwLTE2Ljg5Ni0yLjA0OC0yNC4wNjQtNi42NTYtNy4xNjgtNC42MDgtMTMuMzEyLTExLjI2NC0xOC45NDQtMjAuNDh2NTcuMzQ0YzAgNC42MDggMS4wMjQgNy42OCAzLjA3MiA5LjIxNiAyLjU2IDIuNTYgNi42NTYgMy41ODQgMTEuMjY0IDMuNTg0aDEwLjI0djEwLjc1MkgyMjUuMjh2LTEwLjc1MmgxMC4yNGM0LjYwOCAwIDguNzA0LTEuMDI0IDEwLjc1Mi0zLjA3MiAyLjU2LTIuMDQ4IDMuNTg0LTQuNjA4IDMuNTg0LTcuNjhWNDcyLjA2NGMwLTcuMTY4LTEuNTM2LTExLjc3Ni01LjEyLTE0Ljg0OC0zLjU4NC0zLjA3Mi05LjcyOC00LjYwOC0xOS45NjgtNC42MDh2LTEwLjI0bDQ2LjU5Mi0yLjU2eiBtNDMuNTIgMTMuODI0Yy0xMC43NTIgMC0yMC40OCA1LjEyLTI3LjY0OCAxNS44NzItNy42OCAxMC43NTItMTEuMjY0IDI2LjExMi0xMS4yNjQgNDYuMDggMCAyMC40OCAzLjU4NCAzNS4zMjggMTEuMjY0IDQ1LjA1NiA3LjE2OCA5LjcyOCAxNi44OTYgMTQuMzM2IDI4LjE2IDE0LjMzNiAxMC43NTIgMCAxOC45NDQtNC4wOTYgMjQuNTc2LTEyLjI4OCA3LjE2OC0xMC43NTIgMTEuMjY0LTI2LjYyNCAxMS4yNjQtNDcuNjE2IDAtMjIuMDE2LTMuMDcyLTM3Ljg4OC05LjcyOC00Ny4xMDQtNy42OC05LjcyOC0xNS44NzItMTQuMzM2LTI2LjYyNC0xNC4zMzZ6IG04Ni4wMTYtMTEuMjY0aDY4LjA5NnYxMC4yNGgtNi4xNDRjLTYuMTQ0IDAtMTAuMjQgMS4wMjQtMTIuMjg4IDIuNTYtMi4wNDggMS41MzYtMy4wNzIgMy41ODQtMy4wNzIgNi42NTYgMCAxLjUzNiAwLjUxMiAyLjU2IDEuMDI0IDQuMDk2bDM5LjQyNCA4NC45OTIgMjkuMTg0LTcwLjY1NmMyLjA0OC01LjEyIDMuMDcyLTkuNzI4IDMuMDcyLTE0Ljg0OCAwLTMuNTg0LTEuNTM2LTYuNjU2LTQuNjA4LTguNzA0LTMuMDcyLTIuMDQ4LTguNzA0LTMuNTg0LTE3LjQwOC00LjA5NnYtMTAuMjRoNTguODh2MTAuMjRjLTExLjI2NCAxLjAyNC0xOC45NDQgNi4xNDQtMjMuMDQgMTUuMzZsLTUyLjIyNCAxMjEuODU2Yy04LjcwNCAyMC40OC0xNy45MiAzNC44MTYtMjYuNjI0IDQyLjQ5Ni05LjIxNiA3LjY4LTE4Ljk0NCAxMS43NzYtMjkuMTg0IDExLjc3Ni03LjY4IDAtMTMuODI0LTIuMDQ4LTE4LjQzMi02LjE0NC00LjYwOC00LjA5Ni02LjY1Ni05LjIxNi02LjY1Ni0xNS4zNiAwLTQuNjA4IDEuNTM2LTguMTkyIDQuMDk2LTExLjI2NCAzLjA3Mi0zLjA3MiA2LjE0NC00LjYwOCAxMC43NTItNC42MDggMy41ODQgMCA3LjE2OCAxLjAyNCA5LjcyOCAzLjU4NCAyLjU2IDIuNTYgNC4wOTYgNS42MzIgNC4wOTYgOS4yMTYgMCAxLjAyNCAwIDIuNTYtMC41MTIgNC42MDgtMC41MTIgMS41MzYtMC41MTIgMi41Ni0wLjUxMiAzLjU4NCAwIDIuNTYgMS41MzYgMy41ODQgNC42MDggMy41ODQgMy41ODQgMCA3LjE2OC0xLjAyNCAxMS4yNjQtMy41ODQgNC4wOTYtMi41NiA4LjE5Mi02LjE0NCAxMS43NzYtMTEuNzc2czEwLjI0LTE3LjQwOCAxOC45NDQtMzUuMzI4TDQyMC44NjQgNDY1LjkyYy0yLjA0OC00LjA5Ni00LjA5Ni03LjE2OC03LjE2OC05LjIxNi0zLjA3Mi0yLjA0OC03LjE2OC0zLjA3Mi0xMi44LTQuMDk2di0xMC4yNHogbTIwNi44NDgtNTcuODU2aDEwLjI0djU3Ljg1Nmg0NS41Njh2MTMuODI0aC00NS41Njh2OTAuNjI0YzAgNy42OCAyLjA0OCAxMy44MjQgNS42MzIgMTcuOTIgMy41ODQgNC4wOTYgOC43MDQgNi4xNDQgMTQuMzM2IDYuMTQ0IDYuNjU2IDAgMTIuOC0zLjA3MiAxNy40MDgtOS43MjggNC42MDgtNi4xNDQgNy42OC0xNi44OTYgOC43MDQtMzEuMjMyaDEwLjI0Yy0wLjUxMiAxOC45NDQtNS4xMiAzMi43NjgtMTIuOCA0MS45ODQtOC4xOTIgOS4yMTYtMTguNDMyIDEzLjgyNC0zMS4yMzIgMTMuODI0LTExLjc3NiAwLTIwLjk5Mi0zLjA3Mi0yNy42NDgtOS43MjgtNi42NTYtNi4xNDQtOS43MjgtMTQuODQ4LTkuNzI4LTI1LjA4OFY0NTYuMTkySDU2OC4zMlY0NDUuNDRjMTEuMjY0LTIuMDQ4IDE5Ljk2OC02LjY1NiAyNS42LTEzLjgyNCA4LjE5Mi0xMS4yNjQgMTMuMzEyLTI2LjYyNCAxMy44MjQtNDcuMTA0eiBtMjE2LjA2NCAxMzAuMDQ4aC0xMDEuMzc2YzAuNTEyIDIxLjUwNCA0LjYwOCAzNi44NjQgMTIuMjg4IDQ1LjU2OCA4LjcwNCA5LjcyOCAxOS40NTYgMTQuODQ4IDMzLjI4IDE0Ljg0OCAxOS45NjggMCAzNS44NC0xMS4yNjQgNDcuNjE2LTMzLjc5Mmw5LjcyOCA0LjA5NmMtMTQuODQ4IDI4LjY3Mi0zNS44NCA0My4wMDgtNjQgNDMuMDA4LTE4Ljk0NCAwLTM0LjgxNi02LjY1Ni00Ny42MTYtMjAuNDgtMTIuOC0xMy44MjQtMTkuNDU2LTMxLjIzMi0xOS40NTYtNTIuNzM2IDAtMjMuMDQgNi4xNDQtNDEuNDcyIDE4Ljk0NC01NS44MDggMTIuOC0xNC4zMzYgMjguNjcyLTIwLjk5MiA0Ny4xMDQtMjAuOTkyIDEzLjgyNCAwIDI1LjYgMy41ODQgMzUuMzI4IDEwLjc1MiA5LjcyOCA3LjE2OCAxNy40MDggMTcuNDA4IDIyLjUyOCAzMC4yMDggMy41ODQgOS4yMTYgNS42MzIgMjAuOTkyIDUuNjMyIDM1LjMyOHogbS0xMDEuMzc2LTEwLjc1Mmg2MS40NGMzLjU4NCAwIDYuNjU2LTEuMDI0IDguNzA0LTMuNTg0IDIuMDQ4LTIuNTYgMy4wNzItNi42NTYgMy4wNzItMTIuOCAwLTExLjI2NC0zLjU4NC0yMC40OC0xMC4yNC0yOC4xNnMtMTQuODQ4LTExLjc3Ni0yNC41NzYtMTEuNzc2Yy0xMC4yNCAwLTE5LjQ1NiA0LjYwOC0yNi42MjQgMTMuODI0LTcuNjggOS43MjgtMTEuNzc2IDIzLjU1Mi0xMS43NzYgNDIuNDk2eiBtMTIwLjgzMi02MS40NGw1MS4yLTIuNTZ2NTcuMzQ0YzUuNjMyLTE4Ljk0NCAxMS43NzYtMzMuMjggMTkuNDU2LTQzLjAwOCA3LjY4LTkuNzI4IDE2Ljg5Ni0xNC4zMzYgMjguNjcyLTE0LjMzNiA3LjY4IDAgMTMuODI0IDIuNTYgMTguNDMyIDcuMTY4IDQuNjA4IDQuNjA4IDYuNjU2IDEwLjc1MiA2LjY1NiAxOC45NDQgMCA2LjE0NC0xLjUzNiAxMS4yNjQtNC42MDggMTQuODQ4LTMuMDcyIDMuNTg0LTcuMTY4IDUuMTItMTEuNzc2IDUuMTItNC42MDggMC04LjE5Mi0xLjUzNi0xMC43NTItNC42MDgtMi41Ni0zLjA3Mi00LjA5Ni03LjE2OC00LjA5Ni0xMi4yODggMC0zLjU4NCAxLjAyNC02LjY1NiAyLjU2LTkuMjE2czIuMDQ4LTQuMDk2IDIuMDQ4LTQuNjA4YzAtMS41MzYtMS4wMjQtMi4wNDgtMy4wNzItMi4wNDgtNC4wOTYgMC04LjcwNCAyLjU2LTEzLjgyNCA3LjE2OC03LjE2OCA2LjY1Ni0xMi44IDE1Ljg3Mi0xNi44OTYgMjcuNjQ4LTYuMTQ0IDE4LjQzMi05LjIxNiAzMi43NjgtOS4yMTYgNDQuMDMydjMwLjIwOGMwIDMuNTg0IDEuMDI0IDYuMTQ0IDMuNTg0IDcuNjggMi41NiAyLjA0OCA2LjY1NiAyLjU2IDEyLjI4OCAyLjU2aDE3LjkydjExLjI2NGgtODguMDY0di0xMS4yNjRoMTMuODI0YzQuNjA4IDAgOC4xOTItMS4wMjQgMTAuNzUyLTIuNTYgMi41Ni0yLjA0OCAzLjU4NC00LjA5NiAzLjU4NC02LjY1NlY0NzMuMDg4YzAtNi42NTYtMS41MzYtMTEuNzc2LTQuNjA4LTE0Ljg0OHMtNy4xNjgtNC42MDgtMTIuOC00LjYwOGgtMTIuMjg4bDEuMDI0LTExLjI2NHoiLz48L3N2Zz4=;imageBackground=#FFB366;fontFamily=Helvetica;" vertex="1" parent="1">
          <mxGeometry x="1120" y="620" width="45.81" height="45.81" as="geometry" />
        </mxCell>
        <mxCell id="S_Zhk84kwY3klK829ZPG-28" value="" style="shape=image;verticalLabelPosition=bottom;labelBackgroundColor=default;verticalAlign=top;aspect=fixed;imageAspect=0;image=data:image/svg+xml,PHN2ZyB4bWxuczp4bGluaz0iaHR0cDovL3d3dy53My5vcmcvMTk5OS94bGluayIgeG1sbnM9Imh0dHA6Ly93d3cudzMub3JnLzIwMDAvc3ZnIiBoZWlnaHQ9IjIwMCIgd2lkdGg9IjIwMCIgaWQ9Im14X25fMTY5NTU0MDM5MTY1OSIgdmVyc2lvbj0iMS4xIiB2aWV3Qm94PSIwIDAgMTAyNCAxMDI0IiBjbGFzcz0iaWNvbiI+PHBhdGggZmlsbD0iI0Y1N0MwMCIgZD0iTTg4NC43MzYgMzM2LjM4NGMtNTguODgtMTUwLjAxNi0yMDQuOC0yNTYuNTEyLTM3NS44MDgtMjU2LjUxMnMtMzE3LjQ0IDEwNi40OTYtMzc2LjMyIDI1Ni41MTJDMjM1LjUyIDI1My45NTIgMzY2LjA4IDIwNC44IDUwOC40MTYgMjA0LjhjMTQyLjMzNiAwIDI3Mi44OTYgNDkuMTUyIDM3Ni4zMiAxMzEuNTg0eiBtLTM3Ni4zMiA0MzIuNjRjLTE0MC4yODggMC0yNjkuMzEyLTQ4LjEyOC0zNzEuNzEyLTEyOC41MTIgNjEuNDQgMTQ0Ljg5NiAyMDQuOCAyNDYuNzg0IDM3Mi4yMjQgMjQ2Ljc4NHMzMTAuNzg0LTEwMS44ODggMzcyLjIyNC0yNDYuNzg0Yy0xMDIuOTEyIDgwLjg5Ni0yMzIuNDQ4IDEyOC41MTItMzcyLjczNiAxMjguNTEyeiIvPjxwYXRoIGZpbGw9IiM5RkEwQTAiIGQ9Ik05OC4zMDQgMTQzLjg3MmMwIDI0LjU3NiAxOS45NjggNDQuNTQ0IDQ0LjU0NCA0NC41NDRzNDQuNTQ0LTE5Ljk2OCA0NC41NDQtNDQuNTQ0YzAtMjQuNTc2LTE5Ljk2OC00NC41NDQtNDQuNTQ0LTQ0LjU0NHMtNDQuNTQ0IDE5Ljk2OC00NC41NDQgNDQuNTQ0ek03NDMuOTM2IDYyLjk3NmMwIDMzLjc5MiAyNy4xMzYgNjAuOTI4IDYwLjkyOCA2MC45MjggMzMuNzkyIDAgNjAuOTI4LTI3LjEzNiA2MC45MjgtNjAuOTI4UzgzOC42NTYgMi4wNDggODA0Ljg2NCAyLjA0OGMtMzMuNzkyIDAtNjAuOTI4IDI3LjEzNi02MC45MjggNjAuOTI4ek0xMjYuNDY0IDk0My42MTZjMCA0My4wMDggMzQuODE2IDc4LjMzNiA3OC4zMzYgNzguMzM2czc4LjMzNi0zNC44MTYgNzguMzM2LTc4LjMzNmMwLTQzLjAwOC0zNC44MTYtNzguMzM2LTc4LjMzNi03OC4zMzZzLTc4LjMzNiAzNS4zMjgtNzguMzM2IDc4LjMzNnoiLz48cGF0aCBkPSJNMTA4LjAzMiAzNjAuNDQ4aDk4LjgxNnYxMS4yNjRoLTEzLjgyNGMtNS42MzIgMC05LjcyOCAxLjAyNC0xMS43NzYgMy4wNzItMi41NiAyLjA0OC0zLjU4NCA1LjEyLTMuNTg0IDguNzA0djE0NC44OTZjMCAxMS4yNjQtMi41NiAyMS41MDQtOC4xOTIgMzAuMjA4LTUuNjMyIDkuMjE2LTEzLjMxMiAxNi4zODQtMjQuMDY0IDIxLjUwNC0xMC4yNCA1LjEyLTIyLjUyOCA4LjE5Mi0zNS4zMjggOC4xOTItMTcuOTIgMC0zMi43NjgtNS4xMi00NC4wMzItMTUuODcyLTExLjI2NC0xMC43NTItMTYuODk2LTIzLjU1Mi0xNi44OTYtMzguNCAwLTExLjI2NCAzLjA3Mi0yMC40OCA4LjcwNC0yNy4xMzYgNS42MzItNi42NTYgMTIuOC0xMC4yNCAyMC45OTItMTAuMjQgNi42NTYgMCAxMi4yODggMi4wNDggMTYuODk2IDYuNjU2IDQuNjA4IDQuNjA4IDYuNjU2IDkuNzI4IDYuNjU2IDE2Ljg5NiAwIDUuNjMyLTIuMDQ4IDEwLjc1Mi01LjYzMiAxNC44NDhzLTcuNjggNi4xNDQtMTIuOCA2LjE0NGMtMi4wNDggMC00LjA5Ni0wLjUxMi03LjY4LTEuNTM2LTIuNTYtMS4wMjQtNC42MDgtMS4wMjQtNS42MzItMS4wMjQtMS41MzYgMC0zLjA3MiAwLjUxMi00LjA5NiAyLjA0OC0xLjAyNCAxLjUzNi0xLjUzNiAzLjU4NC0xLjUzNiA2LjE0NCAwIDcuNjggMy41ODQgMTQuMzM2IDExLjI2NCAyMC40OCA3LjY4IDYuMTQ0IDE2Ljg5NiA5LjIxNiAyOC4xNiA5LjIxNiAxMi44IDAgMjIuNTI4LTQuNjA4IDI5LjY5Ni0xMy4zMTJzMTAuNzUyLTIwLjk5MiAxMC43NTItMzYuMzUydi0xNDMuMzZjMC00LjA5Ni0xLjUzNi02LjY1Ni00LjA5Ni04LjcwNC0yLjU2LTIuMDQ4LTcuMTY4LTMuMDcyLTEzLjgyNC0zLjA3MmgtMTkuOTY4bDEuMDI0LTExLjI2NHpNMjcxLjM2IDQzOS44MDhjMi4wNDggMTAuNzUyIDMuNTg0IDIwLjk5MiA0LjA5NiAzMC43MiA3LjE2OC0xMS4yNjQgMTQuMzM2LTE4Ljk0NCAyMi4wMTYtMjMuNTUyIDcuNjgtNC42MDggMTYuMzg0LTcuMTY4IDI1LjA4OC03LjE2OCA5LjcyOCAwIDE4Ljk0NCAzLjA3MiAyNy42NDggOC43MDQgOC43MDQgNi4xNDQgMTUuODcyIDE0Ljg0OCAyMS41MDQgMjYuMTEyczguMTkyIDI0LjU3NiA4LjE5MiAzOC45MTJjMCAyMy4wNC02LjY1NiA0MS45ODQtMTkuOTY4IDU2LjMyLTExLjI2NCAxMi4yODgtMjQuNTc2IDE3LjkyLTM5LjkzNiAxNy45Mi04LjcwNCAwLTE2Ljg5Ni0yLjA0OC0yNC4wNjQtNi42NTYtNy4xNjgtNC42MDgtMTMuMzEyLTExLjI2NC0xOC45NDQtMjAuNDh2NTcuMzQ0YzAgNC42MDggMS4wMjQgNy42OCAzLjA3MiA5LjIxNiAyLjU2IDIuNTYgNi42NTYgMy41ODQgMTEuMjY0IDMuNTg0aDEwLjI0djEwLjc1MkgyMjUuMjh2LTEwLjc1MmgxMC4yNGM0LjYwOCAwIDguNzA0LTEuMDI0IDEwLjc1Mi0zLjA3MiAyLjU2LTIuMDQ4IDMuNTg0LTQuNjA4IDMuNTg0LTcuNjhWNDcyLjA2NGMwLTcuMTY4LTEuNTM2LTExLjc3Ni01LjEyLTE0Ljg0OC0zLjU4NC0zLjA3Mi05LjcyOC00LjYwOC0xOS45NjgtNC42MDh2LTEwLjI0bDQ2LjU5Mi0yLjU2eiBtNDMuNTIgMTMuODI0Yy0xMC43NTIgMC0yMC40OCA1LjEyLTI3LjY0OCAxNS44NzItNy42OCAxMC43NTItMTEuMjY0IDI2LjExMi0xMS4yNjQgNDYuMDggMCAyMC40OCAzLjU4NCAzNS4zMjggMTEuMjY0IDQ1LjA1NiA3LjE2OCA5LjcyOCAxNi44OTYgMTQuMzM2IDI4LjE2IDE0LjMzNiAxMC43NTIgMCAxOC45NDQtNC4wOTYgMjQuNTc2LTEyLjI4OCA3LjE2OC0xMC43NTIgMTEuMjY0LTI2LjYyNCAxMS4yNjQtNDcuNjE2IDAtMjIuMDE2LTMuMDcyLTM3Ljg4OC05LjcyOC00Ny4xMDQtNy42OC05LjcyOC0xNS44NzItMTQuMzM2LTI2LjYyNC0xNC4zMzZ6IG04Ni4wMTYtMTEuMjY0aDY4LjA5NnYxMC4yNGgtNi4xNDRjLTYuMTQ0IDAtMTAuMjQgMS4wMjQtMTIuMjg4IDIuNTYtMi4wNDggMS41MzYtMy4wNzIgMy41ODQtMy4wNzIgNi42NTYgMCAxLjUzNiAwLjUxMiAyLjU2IDEuMDI0IDQuMDk2bDM5LjQyNCA4NC45OTIgMjkuMTg0LTcwLjY1NmMyLjA0OC01LjEyIDMuMDcyLTkuNzI4IDMuMDcyLTE0Ljg0OCAwLTMuNTg0LTEuNTM2LTYuNjU2LTQuNjA4LTguNzA0LTMuMDcyLTIuMDQ4LTguNzA0LTMuNTg0LTE3LjQwOC00LjA5NnYtMTAuMjRoNTguODh2MTAuMjRjLTExLjI2NCAxLjAyNC0xOC45NDQgNi4xNDQtMjMuMDQgMTUuMzZsLTUyLjIyNCAxMjEuODU2Yy04LjcwNCAyMC40OC0xNy45MiAzNC44MTYtMjYuNjI0IDQyLjQ5Ni05LjIxNiA3LjY4LTE4Ljk0NCAxMS43NzYtMjkuMTg0IDExLjc3Ni03LjY4IDAtMTMuODI0LTIuMDQ4LTE4LjQzMi02LjE0NC00LjYwOC00LjA5Ni02LjY1Ni05LjIxNi02LjY1Ni0xNS4zNiAwLTQuNjA4IDEuNTM2LTguMTkyIDQuMDk2LTExLjI2NCAzLjA3Mi0zLjA3MiA2LjE0NC00LjYwOCAxMC43NTItNC42MDggMy41ODQgMCA3LjE2OCAxLjAyNCA5LjcyOCAzLjU4NCAyLjU2IDIuNTYgNC4wOTYgNS42MzIgNC4wOTYgOS4yMTYgMCAxLjAyNCAwIDIuNTYtMC41MTIgNC42MDgtMC41MTIgMS41MzYtMC41MTIgMi41Ni0wLjUxMiAzLjU4NCAwIDIuNTYgMS41MzYgMy41ODQgNC42MDggMy41ODQgMy41ODQgMCA3LjE2OC0xLjAyNCAxMS4yNjQtMy41ODQgNC4wOTYtMi41NiA4LjE5Mi02LjE0NCAxMS43NzYtMTEuNzc2czEwLjI0LTE3LjQwOCAxOC45NDQtMzUuMzI4TDQyMC44NjQgNDY1LjkyYy0yLjA0OC00LjA5Ni00LjA5Ni03LjE2OC03LjE2OC05LjIxNi0zLjA3Mi0yLjA0OC03LjE2OC0zLjA3Mi0xMi44LTQuMDk2di0xMC4yNHogbTIwNi44NDgtNTcuODU2aDEwLjI0djU3Ljg1Nmg0NS41Njh2MTMuODI0aC00NS41Njh2OTAuNjI0YzAgNy42OCAyLjA0OCAxMy44MjQgNS42MzIgMTcuOTIgMy41ODQgNC4wOTYgOC43MDQgNi4xNDQgMTQuMzM2IDYuMTQ0IDYuNjU2IDAgMTIuOC0zLjA3MiAxNy40MDgtOS43MjggNC42MDgtNi4xNDQgNy42OC0xNi44OTYgOC43MDQtMzEuMjMyaDEwLjI0Yy0wLjUxMiAxOC45NDQtNS4xMiAzMi43NjgtMTIuOCA0MS45ODQtOC4xOTIgOS4yMTYtMTguNDMyIDEzLjgyNC0zMS4yMzIgMTMuODI0LTExLjc3NiAwLTIwLjk5Mi0zLjA3Mi0yNy42NDgtOS43MjgtNi42NTYtNi4xNDQtOS43MjgtMTQuODQ4LTkuNzI4LTI1LjA4OFY0NTYuMTkySDU2OC4zMlY0NDUuNDRjMTEuMjY0LTIuMDQ4IDE5Ljk2OC02LjY1NiAyNS42LTEzLjgyNCA4LjE5Mi0xMS4yNjQgMTMuMzEyLTI2LjYyNCAxMy44MjQtNDcuMTA0eiBtMjE2LjA2NCAxMzAuMDQ4aC0xMDEuMzc2YzAuNTEyIDIxLjUwNCA0LjYwOCAzNi44NjQgMTIuMjg4IDQ1LjU2OCA4LjcwNCA5LjcyOCAxOS40NTYgMTQuODQ4IDMzLjI4IDE0Ljg0OCAxOS45NjggMCAzNS44NC0xMS4yNjQgNDcuNjE2LTMzLjc5Mmw5LjcyOCA0LjA5NmMtMTQuODQ4IDI4LjY3Mi0zNS44NCA0My4wMDgtNjQgNDMuMDA4LTE4Ljk0NCAwLTM0LjgxNi02LjY1Ni00Ny42MTYtMjAuNDgtMTIuOC0xMy44MjQtMTkuNDU2LTMxLjIzMi0xOS40NTYtNTIuNzM2IDAtMjMuMDQgNi4xNDQtNDEuNDcyIDE4Ljk0NC01NS44MDggMTIuOC0xNC4zMzYgMjguNjcyLTIwLjk5MiA0Ny4xMDQtMjAuOTkyIDEzLjgyNCAwIDI1LjYgMy41ODQgMzUuMzI4IDEwLjc1MiA5LjcyOCA3LjE2OCAxNy40MDggMTcuNDA4IDIyLjUyOCAzMC4yMDggMy41ODQgOS4yMTYgNS42MzIgMjAuOTkyIDUuNjMyIDM1LjMyOHogbS0xMDEuMzc2LTEwLjc1Mmg2MS40NGMzLjU4NCAwIDYuNjU2LTEuMDI0IDguNzA0LTMuNTg0IDIuMDQ4LTIuNTYgMy4wNzItNi42NTYgMy4wNzItMTIuOCAwLTExLjI2NC0zLjU4NC0yMC40OC0xMC4yNC0yOC4xNnMtMTQuODQ4LTExLjc3Ni0yNC41NzYtMTEuNzc2Yy0xMC4yNCAwLTE5LjQ1NiA0LjYwOC0yNi42MjQgMTMuODI0LTcuNjggOS43MjgtMTEuNzc2IDIzLjU1Mi0xMS43NzYgNDIuNDk2eiBtMTIwLjgzMi02MS40NGw1MS4yLTIuNTZ2NTcuMzQ0YzUuNjMyLTE4Ljk0NCAxMS43NzYtMzMuMjggMTkuNDU2LTQzLjAwOCA3LjY4LTkuNzI4IDE2Ljg5Ni0xNC4zMzYgMjguNjcyLTE0LjMzNiA3LjY4IDAgMTMuODI0IDIuNTYgMTguNDMyIDcuMTY4IDQuNjA4IDQuNjA4IDYuNjU2IDEwLjc1MiA2LjY1NiAxOC45NDQgMCA2LjE0NC0xLjUzNiAxMS4yNjQtNC42MDggMTQuODQ4LTMuMDcyIDMuNTg0LTcuMTY4IDUuMTItMTEuNzc2IDUuMTItNC42MDggMC04LjE5Mi0xLjUzNi0xMC43NTItNC42MDgtMi41Ni0zLjA3Mi00LjA5Ni03LjE2OC00LjA5Ni0xMi4yODggMC0zLjU4NCAxLjAyNC02LjY1NiAyLjU2LTkuMjE2czIuMDQ4LTQuMDk2IDIuMDQ4LTQuNjA4YzAtMS41MzYtMS4wMjQtMi4wNDgtMy4wNzItMi4wNDgtNC4wOTYgMC04LjcwNCAyLjU2LTEzLjgyNCA3LjE2OC03LjE2OCA2LjY1Ni0xMi44IDE1Ljg3Mi0xNi44OTYgMjcuNjQ4LTYuMTQ0IDE4LjQzMi05LjIxNiAzMi43NjgtOS4yMTYgNDQuMDMydjMwLjIwOGMwIDMuNTg0IDEuMDI0IDYuMTQ0IDMuNTg0IDcuNjggMi41NiAyLjA0OCA2LjY1NiAyLjU2IDEyLjI4OCAyLjU2aDE3LjkydjExLjI2NGgtODguMDY0di0xMS4yNjRoMTMuODI0YzQuNjA4IDAgOC4xOTItMS4wMjQgMTAuNzUyLTIuNTYgMi41Ni0yLjA0OCAzLjU4NC00LjA5NiAzLjU4NC02LjY1NlY0NzMuMDg4YzAtNi42NTYtMS41MzYtMTEuNzc2LTQuNjA4LTE0Ljg0OHMtNy4xNjgtNC42MDgtMTIuOC00LjYwOGgtMTIuMjg4bDEuMDI0LTExLjI2NHoiLz48L3N2Zz4=;imageBackground=#FFB366;fontFamily=Helvetica;" vertex="1" parent="1">
          <mxGeometry x="1444.19" y="620" width="45.81" height="45.81" as="geometry" />
        </mxCell>
        <mxCell id="S_Zhk84kwY3klK829ZPG-29" value="&lt;font style=&quot;&quot;&gt;&lt;span style=&quot;font-size: 22px;&quot;&gt;workflow&lt;/span&gt;&lt;br&gt;&lt;i style=&quot;&quot;&gt;&lt;font style=&quot;font-size: 11px;&quot;&gt;figure 5&lt;/font&gt;&lt;/i&gt;&lt;br&gt;&lt;/font&gt;" style="text;html=1;strokeColor=none;fillColor=none;align=center;verticalAlign=middle;whiteSpace=wrap;rounded=0;fontFamily=Helvetica;" vertex="1" parent="1">
          <mxGeometry x="1181.8200000000002" y="1019.95" width="98.18150943396228" height="49.09090909090909" as="geometry" />
        </mxCell>
        <mxCell id="S_Zhk84kwY3klK829ZPG-30" value="&lt;font style=&quot;font-size: 16px;&quot;&gt;InferenceData&lt;/font&gt;" style="rounded=1;whiteSpace=wrap;html=1;fontSize=22;glass=0;strokeWidth=1;shadow=0;align=center;fontFamily=Helvetica;" vertex="1" parent="1">
          <mxGeometry x="1165.81" y="909" width="120" height="40" as="geometry" />
        </mxCell>
        <mxCell id="S_Zhk84kwY3klK829ZPG-31" value="" style="group;fontFamily=Helvetica;" vertex="1" connectable="0" parent="1">
          <mxGeometry x="1330" y="770" width="140.54" height="260" as="geometry" />
        </mxCell>
        <mxCell id="S_Zhk84kwY3klK829ZPG-32" value="" style="group;fontFamily=Helvetica;" vertex="1" connectable="0" parent="S_Zhk84kwY3klK829ZPG-31">
          <mxGeometry x="-9.46" y="-10" width="150" height="270" as="geometry" />
        </mxCell>
        <mxCell id="S_Zhk84kwY3klK829ZPG-33" value="" style="rounded=0;whiteSpace=wrap;html=1;fillColor=#DEF2DD;strokeColor=#82b366;fontFamily=Helvetica;" vertex="1" parent="S_Zhk84kwY3klK829ZPG-32">
          <mxGeometry width="150" height="270" as="geometry" />
        </mxCell>
        <mxCell id="S_Zhk84kwY3klK829ZPG-34" value="diagnosis" style="rounded=1;whiteSpace=wrap;html=1;fontSize=22;glass=0;strokeWidth=1;shadow=0;align=center;fontFamily=Helvetica;" vertex="1" parent="S_Zhk84kwY3klK829ZPG-32">
          <mxGeometry x="10.534380165289257" y="10" width="128.92561983471074" height="40" as="geometry" />
        </mxCell>
        <mxCell id="S_Zhk84kwY3klK829ZPG-35" value="comparision" style="rounded=1;whiteSpace=wrap;html=1;fontSize=22;glass=0;strokeWidth=1;shadow=0;align=center;fontFamily=Helvetica;" vertex="1" parent="S_Zhk84kwY3klK829ZPG-32">
          <mxGeometry x="9.46" y="80" width="128.92561983471074" height="40" as="geometry" />
        </mxCell>
        <mxCell id="S_Zhk84kwY3klK829ZPG-36" style="edgeStyle=orthogonalEdgeStyle;rounded=0;orthogonalLoop=1;jettySize=auto;html=1;exitX=0.5;exitY=1;exitDx=0;exitDy=0;entryX=0.5;entryY=0;entryDx=0;entryDy=0;fontFamily=Helvetica;" edge="1" parent="S_Zhk84kwY3klK829ZPG-32" source="S_Zhk84kwY3klK829ZPG-34" target="S_Zhk84kwY3klK829ZPG-35">
          <mxGeometry relative="1" as="geometry" />
        </mxCell>
        <mxCell id="S_Zhk84kwY3klK829ZPG-37" value="ppc" style="rounded=1;whiteSpace=wrap;html=1;fontSize=22;glass=0;strokeWidth=1;shadow=0;align=center;fontFamily=Helvetica;" vertex="1" parent="S_Zhk84kwY3klK829ZPG-32">
          <mxGeometry x="10.534380165289257" y="150" width="128.92561983471074" height="40" as="geometry" />
        </mxCell>
        <mxCell id="S_Zhk84kwY3klK829ZPG-38" style="edgeStyle=orthogonalEdgeStyle;rounded=0;orthogonalLoop=1;jettySize=auto;html=1;exitX=0.5;exitY=1;exitDx=0;exitDy=0;entryX=0.5;entryY=0;entryDx=0;entryDy=0;fontFamily=Helvetica;" edge="1" parent="S_Zhk84kwY3klK829ZPG-32" source="S_Zhk84kwY3klK829ZPG-35" target="S_Zhk84kwY3klK829ZPG-37">
          <mxGeometry relative="1" as="geometry" />
        </mxCell>
        <mxCell id="S_Zhk84kwY3klK829ZPG-39" value="inference" style="rounded=1;whiteSpace=wrap;html=1;fontSize=22;glass=0;strokeWidth=1;shadow=0;align=center;fontFamily=Helvetica;" vertex="1" parent="S_Zhk84kwY3klK829ZPG-32">
          <mxGeometry x="10.534380165289257" y="219" width="128.92561983471074" height="40" as="geometry" />
        </mxCell>
        <mxCell id="S_Zhk84kwY3klK829ZPG-40" style="edgeStyle=orthogonalEdgeStyle;rounded=0;orthogonalLoop=1;jettySize=auto;html=1;exitX=0.5;exitY=1;exitDx=0;exitDy=0;entryX=0.5;entryY=0;entryDx=0;entryDy=0;fontFamily=Helvetica;" edge="1" parent="S_Zhk84kwY3klK829ZPG-32" source="S_Zhk84kwY3klK829ZPG-37" target="S_Zhk84kwY3klK829ZPG-39">
          <mxGeometry relative="1" as="geometry" />
        </mxCell>
        <mxCell id="S_Zhk84kwY3klK829ZPG-41" style="edgeStyle=orthogonalEdgeStyle;rounded=0;orthogonalLoop=1;jettySize=auto;html=1;fillColor=#f8cecc;strokeColor=#b85450;strokeWidth=5;exitX=1;exitY=0.5;exitDx=0;exitDy=0;fontFamily=Helvetica;" edge="1" parent="1">
          <mxGeometry relative="1" as="geometry">
            <mxPoint x="1161.0000000000002" y="886.57" as="sourcePoint" />
            <mxPoint x="1301" y="887" as="targetPoint" />
          </mxGeometry>
        </mxCell>
        <mxCell id="S_Zhk84kwY3klK829ZPG-42" value="" style="group;fontFamily=Helvetica;" vertex="1" connectable="0" parent="1">
          <mxGeometry x="1000" y="760" width="150" height="270" as="geometry" />
        </mxCell>
        <mxCell id="S_Zhk84kwY3klK829ZPG-43" value="" style="rounded=0;whiteSpace=wrap;html=1;fillColor=#DEF2DD;strokeColor=#82b366;fontFamily=Helvetica;" vertex="1" parent="S_Zhk84kwY3klK829ZPG-42">
          <mxGeometry width="140" height="270" as="geometry" />
        </mxCell>
        <mxCell id="S_Zhk84kwY3klK829ZPG-44" value="data" style="rounded=1;whiteSpace=wrap;html=1;fontSize=22;glass=0;strokeWidth=1;shadow=0;align=center;fontFamily=Helvetica;" vertex="1" parent="S_Zhk84kwY3klK829ZPG-42">
          <mxGeometry x="10" y="30" width="120" height="40" as="geometry" />
        </mxCell>
        <mxCell id="S_Zhk84kwY3klK829ZPG-45" value="&lt;p style=&quot;line-height: 70%;&quot;&gt;&lt;font style=&quot;font-size: 14px;&quot;&gt;model&lt;br&gt;specification&lt;/font&gt;&lt;/p&gt;" style="rounded=1;whiteSpace=wrap;html=1;fontSize=22;glass=0;strokeWidth=1;shadow=0;align=center;fontFamily=Helvetica;" vertex="1" parent="S_Zhk84kwY3klK829ZPG-42">
          <mxGeometry x="10" y="115" width="120" height="40" as="geometry" />
        </mxCell>
        <mxCell id="S_Zhk84kwY3klK829ZPG-46" style="edgeStyle=orthogonalEdgeStyle;rounded=0;orthogonalLoop=1;jettySize=auto;html=1;exitX=0.5;exitY=1;exitDx=0;exitDy=0;fontFamily=Helvetica;" edge="1" parent="S_Zhk84kwY3klK829ZPG-42" source="S_Zhk84kwY3klK829ZPG-44" target="S_Zhk84kwY3klK829ZPG-45">
          <mxGeometry relative="1" as="geometry" />
        </mxCell>
        <mxCell id="S_Zhk84kwY3klK829ZPG-47" value="fitting" style="rounded=1;whiteSpace=wrap;html=1;fontSize=22;glass=0;strokeWidth=1;shadow=0;align=center;fontFamily=Helvetica;" vertex="1" parent="S_Zhk84kwY3klK829ZPG-42">
          <mxGeometry x="10" y="190" width="120" height="40" as="geometry" />
        </mxCell>
        <mxCell id="S_Zhk84kwY3klK829ZPG-48" style="edgeStyle=orthogonalEdgeStyle;rounded=0;orthogonalLoop=1;jettySize=auto;html=1;exitX=0.5;exitY=1;exitDx=0;exitDy=0;entryX=0.5;entryY=0;entryDx=0;entryDy=0;fontFamily=Helvetica;" edge="1" parent="S_Zhk84kwY3klK829ZPG-42" source="S_Zhk84kwY3klK829ZPG-45" target="S_Zhk84kwY3klK829ZPG-47">
          <mxGeometry relative="1" as="geometry" />
        </mxCell>
        <mxCell id="S_Zhk84kwY3klK829ZPG-49" value="" style="group;fontFamily=Helvetica;" vertex="1" connectable="0" parent="1">
          <mxGeometry x="1350" y="1031" width="81.13000000000011" height="29" as="geometry" />
        </mxCell>
        <mxCell id="S_Zhk84kwY3klK829ZPG-50" value="&lt;font style=&quot;&quot;&gt;&lt;font style=&quot;font-size: 18px;&quot;&gt;ArviZ&lt;/font&gt;&lt;br&gt;&lt;/font&gt;" style="text;html=1;strokeColor=none;fillColor=none;align=center;verticalAlign=middle;whiteSpace=wrap;rounded=0;fontFamily=Helvetica;" vertex="1" parent="S_Zhk84kwY3klK829ZPG-49">
          <mxGeometry width="68.18" height="29" as="geometry" />
        </mxCell>
        <mxCell id="S_Zhk84kwY3klK829ZPG-51" value="" style="shape=image;verticalLabelPosition=bottom;labelBackgroundColor=default;verticalAlign=top;aspect=fixed;imageAspect=0;image=data:image/x-icon,AAABAAEAJSAAAAEAIACoEwAAFgAAACgAAAAlAAAAQAAAAAEAIAAAAAAAAAAAAAAAAAAAAAAAAAAAAAAAAAAAAAAAAAAAAAAAAAAAAAAAAAAAAAAAAAAAAAAAAAAAAAAAAAAAAAAAAAAAAAAAAAAAAAAAAAAAAAAAAAAAAAAAAAAAAAAAAAAAAAAAAAAAAAAAAAAAAAAAAAAAAAAAAAAAAAAAAAAAAAAAAAAAAAAAAAAAAAAAAAAAAAAAAAAAAAAAAAAAAAAAAAAAAAAAAAAAAAAAAAAAAAAAAAAAAAAAAAAAAAAAAAAAAAAAAAAAAAAAAAAAAAAAAAAAAOLBRxXiwUdH4sFHZeLBR5riwUeZ4sFHl+LBR2biwUdS4sFHFAAAAAAAAAAAAAAAAAAAAAAAAAAAAAAAAAAAAAAAAAAAAAAAAAAAAAAAAAAAAAAAAAAAAAAAAAAAAAAAAAAAAAAAAAAAAAAAAAAAAAAAAAAAAAAAAAAAAAAAAAAAAAAAAAAAAAAAAAAA4sFHXOLBR7jiwUf/4sFH/+LBR//iwUf/4sFH/+LBR//iwUf/4sFH/+LBR//iwUfM2rpCXL+/ADO/vwAzv78AJAAAAAAAAAAAAAAAAAAAAAAAAAAAAAAAAAAAAAAAAAAAAAAAAAAAAAAAAAAAAAAAAAAAAAAAAAAAAAAAAAAAAAAAAAAAAAAAAAAAAADiwUcz4sFH1uLBR//iwUf/4sFH/+LBR//iwUf/4sFH/+LBR//iwUf/4sFH/+LBR//iwUf/yqs6/5p9F/+ciAv/urgC/7+/AP+/vwD1v78AsL+/AFW/vwAEAAAAAAAAAAAAAAAAAAAAAAAAAAAAAAAAAAAAAAAAAAAAAAAAAAAAAAAAAAAAAAAAAAAAAAAAAADiwUdl4sFH9eLBR//iwUf/4sFH/+LBR//iwUf/4sFH/+LBR//iwUf/4sFH/+LBR//fv0b/vp8y/5F1Df+RdQ3/kXUN/5eBDP+6uAL/v78A/7+/AP+/vwD/v78A67+/AGi/vwAKAAAAAAAAAAAAAAAAAAAAAAAAAAAAAAAAAAAAAAAAAAAAAAAAAAAAAAAAAADiwUc54sFH+uLBR//iwUf/4sFH/+LBR//iwUf/4sFH/+LBR//iwUf/4sFH/9S0P/++nzL/mn0X/5F1Df+RdQ3/kXUN/5F1Df+RdQ3/moUL/729Af+/vwD/v78A/7+/AP+/vwD/v78A57+/AFIAAAAAAAAAAAAAAAAAAAAAAAAAAAAAAAAAAAAAAAAAAAAAAAAAAAAA4sFH1uLBR//iwUf/4sFH/9q6Q//PsD3/x6g4/7qcMP+0liz/pYki/5V5E/+RdQ3/kXUN/5F1Df+RdQ3/kXUN/5F1Df+RdQ3/kXUN/5F1Df+onAf/v78A/7+/AP+/vwD/v78A/7+/AP+/vwD/v78Arb+/AAoAAAAAAAAAAAAAAAAAAAAAAAAAAAAAAAAAAAAA4sFHR+LBR//WtkH/t5ku/5x/Gf+RdQ3/kXUN/5F1Df+RdQ3/kXUN/5F1Df+RdQ3/kXUN/5F1Df+RdQ3/kXUN/5F1Df+RdQ3/kXUN/5F1Df+RdQ3/kXUN/62kBv+/vwD/v78A/7+/AP+/vwD/v78A/7+/AP+/vwDEv78ADwAAAAAAAAAAAAAAAAAAAAAAAAAAAAAAAN28RIC3mS7/kXUN/5F1Df+RdQ3/kXUN/5F1Df+RdQ3/kXUN/5F1Df+RdQ3/kXUN/5F1Df+RdQ3/kXUN/5F1Df+RdQ3/kXUN/5F1Df+RdQ3/kXUN/5F1Df+RdQ3/nIgL/6meB/+wqQX/urgC/7+/AP+/vwD/v78A/7+/AMK/vwAKAAAAAAAAAAAAAAAAAAAAAL+/AAqjkRLMkXUN/5F1Df+RdQ3/kXUN/5F1Df+RdQ3/kXUN/5F1Df+RdQ3/kXUN/5F1Df+RdQ3/kXUN/5F1Df+RdQ3/kXUN/5F1Df+RdQ3/kXUN/5F1Df+RdQ3/kXUN/5F1Df+RdQ3/kXUN/5F1Df+ciAv/sKkF/7+/AP+/vwD/v78AhQAAAAAAAAAAAAAAAAAAAAC/vwCFpZgI/5F1Df+RdQ3/kXUN/5F1Df+RdQ3/kXUN/5F1Df+RdQ3/kXUN/5F1Df+RdQ3/kXUN/5F1Df+RdQ3/kXUN/5F1Df+RdQ3/kXUN/5F1Df+RdQ3/kXUN/5F1Df+RdQ3/kXUN/5F1Df+RdQ3/kXUN/5F1Df+ZhAv/ubYC/7+/APW/vwAUAAAAAAAAAAC/vwAUv78A9a6mBf+RdQ3/kXUN/5F1Df+RdQ3/kXUN/5F1Df+RdQ3/kXUN/5F1Df+RdQ3/kXUN/5F1Df+RdQ3/kXUN/5F1Df+RdQ3/kXUN/5F1Df+RdQ3/kXUN/5F1Df+RdQ3/kXUN/5F1Df+RdQ3/kXUN/5F1Df+RdQ3/kXUN/5N5Df+3swP/v78AbQAAAAAAAAAAv78AXL+/AP+7uQH/kXUN/5F1Df+RdQ3/kXUN/5F1Df+RdQ3/kXUN/5F1Df+RdQ3/kXUN/5F1Df+RdQ3/kXUN/5F1Df+RdQ3/kXUN/5F1Df+RdQ3/kXUN/5F1Df+RdQ3/kXUN/5F1Df+RdQ3/kXUN/5F1Df+RdQ3/kXUN/5F1Df+RdQ3/moUL/7+/AJkAAAAAAAAAAL+/AJm/vwD/v78A/6idB/+RdQ3/kXUN/5F1Df+RdQ3/kXUN/5F1Df+RdQ3/kXUN/5F1Df+RdQ3/kXUN/5F1Df+RdQ3/kXUN/5F1Df+RdQ3/kXUN/5F1Df+RdQ3/kXUN/5F1Df+RdQ3/kXUN/5F1Df+RdQ3/kXUN/5F1Df+RdQ3/kXUN/5F1Df+roAaSAAAAAAAAAAC/vwCZv78A/7+/AP+9vQH/nowK/5F1Df+RdQ3/kXUN/5F1Df+RdQ3/kXUN/5F1Df+RdQ3/kXUN/5F1Df+RdQ3/kXUN/5F1Df+RdQ3/kXUN/5F1Df+RdQ3/kXUN/5F1Df+RdQ3/kXUN/5F1Df+RdQ3/kXUN/5F1Df+RdQ3/kXUN/5F1Df+RdQ3/pYkiZgAAAAAAAAAAv78Amb+/AP+/vwD/v78A/729Af+ejAr/kXUN/5F1Df+RdQ3/kXUN/5F1Df+RdQ3/kXUN/5F1Df+RdQ3/kXUN/5F1Df+RdQ3/kXUN/5F1Df+RdQ3/kXUN/5F1Df+RdQ3/kXUN/5F1Df+RdQ3/kXUN/5F1Df+RdQ3/kXUN/5F1Df+RdQ3/ooUf/+LBR1EAAAAAAAAAAL+/AIW/vwD/v78A/7+/AP+/vwD/vb0B/56MCv+RdQ3/kXUN/5F1Df+RdQ3/kXUN/5F1Df+RdQ3/kXUN/5F1Df+RdQ3/kXUN/5F1Df+RdQ3/kXUN/5F1Df+RdQ3/kXUN/5F1Df+RdQ3/kXUN/5F1Df+RdQ3/kXUN/5F1Df+RdQ3/lHgR/9OzP//iwUcUAAAAAAAAAAC/vwA2v78A/7+/AP+/vwD/v78A/7+/AP+9vQH/mIEM/5F1Df+RdQ3/kXUN/5F1Df+RdQ3/kXUN/5F1Df+RdQ3/kXUN/5F1Df+RdQ3/kXUN/5F1Df+RdQ3/kXUN/5F1Df+RdQ3/kXUN/5F1Df+RdQ3/kXUN/5F1Df+RdQ3/kXUN/8eoOP/iwUefAAAAAAAAAAAAAAAAAAAAAL+/AMK/vwD/v78A/7+/AP+/vwD/v78A/7ezA/+RdQ3/kXUN/5F1Df+RdQ3/kXUN/5F1Df+RdQ3/kXUN/5F1Df+RdQ3/kXUN/5F1Df+RdQ3/kXUN/5F1Df+RdQ3/kXUN/5F1Df+RdQ3/kXUN/5F1Df+RdQ3/lXkT/9CwPf/iwUfg4sFHCgAAAAAAAAAAAAAAAAAAAAC/vwAfv78A5L+/AP+/vwD/v78A/7+/AP+/vwD/pJUI/5F1Df+RdQ3/kXUN/5F1Df+RdQ3/kXUN/5F1Df+RdQ3/kXUN/5F1Df+RdQ3/kXUN/5F1Df+RdQ3/kXUN/5F1Df+RdQ3/kXUN/5F1Df+RdQ3/rZAn/9q6Q//iwUfg4sFHHwAAAAAAAAAAAAAAAAAAAAAAAAAAAAAAAL+/AB6/vwDWv78A/7+/AP+/vwD/v78A/7ezA/+RdQ3/kXUN/5F1Df+RdQ3/kXUN/5F1Df+RdQ3/kXUN/5F1Df+RdQ3/kXUN/5F1Df+RdQ3/kXUN/5F1Df+RdQ3/kXUN/5F1Df+afRf/yKk4/+LBR//iwUe34sFHEgAAAAAAAAAAAAAAAAAAAAAAAAAAAAAAAAAAAAAAAAAAv78ACr+/AIW/vwD1v78A/7+/AP+/vwD/l4EM/5F1Df+RdQ3/kXUN/5F1Df+RdQ3/kXUN/5F1Df+RdQ3/kXUN/5F1Df+RdQ3/kXUN/5F1Df+RdQ3/kXUN/5F1Df+1ly3/3bxE/+LBR//iwUd6AAAAAAAAAAAAAAAAAAAAAAAAAAAAAAAAAAAAAAAAAAAAAAAAAAAAAAAAAAAAAAAAv78AHb+/AKO/vwD/v78A/6SVCP+RdQ3/kXUN/5F1Df+RdQ3/kXUN/5F1Df+RdQ3/kXUN/5F1Df+RdQ3/kXUN/5F1Df+RdQ3/kXUN/5p9F//Nrjz/4sFH/+LBR/TiwUc9AAAAAAAAAAAAAAAAAAAAAAAAAAAAAAAAAAAAAAAAAAAAAAAAAAAAAAAAAAAAAAAAAAAAAAAAAAAAAAAAv78AR7+/AOOpngf/kXUN/5F1Df+RdQ3/kXUN/5F1Df+RdQ3/kXUN/5F1Df+RdQ3/kXUN/5F1Df+RdQ3/kXUN/6aKIv/aukP/4sFH/+LBR+PiwUceAAAAAAAAAAAAAAAAAAAAAAAAAAAAAAAAAAAAAAAAAAAAAAAAAAAAAAAAAAAAAAAAAAAAAAAAAAAAAAAAAAAAAAAAAAC/vwAfsqwE4JF1Df+RdQ3/kXUN/5F1Df+RdQ3/kXUN/5F1Df+RdQ3/kXUN/5F1Df+RdQ3/kXUN/6mMJf/fv0b/4sFH/+LBR//iwUc9AAAAAAAAAAAAAAAAAAAAAAAAAAAAAAAAAAAAAAAAAAAAAAAAAAAAAAAAAAAAAAAAAAAAAAAAAAAAAAAAAAAAAAAAAAAAAAAAAAAAAL+/AB6UegzhkXUN/5F1Df+RdQ3/kXUN/5F1Df+RdQ3/kXUN/5F1Df+RdQ3/kXUN/7qcMP/fv0b/4sFH/+LBR//iwUeTAAAAAAAAAAAAAAAAAAAAAAAAAAAAAAAAAAAAAAAAAAAAAAAAAAAAAAAAAAAAAAAAAAAAAAAAAAAAAAAAAAAAAAAAAAAAAAAAAAAAAAAAAAAAAAAAxKY3R5+DHf+RdQ3/kXUN/5F1Df+RdQ3/kXUN/5F1Df+RdQ3/ooUf/9CwPf/iwUf/4sFH/+LBR//iwUf04sFHFAAAAAAAAAAAAAAAAAAAAAAAAAAAAAAAAAAAAAAAAAAAAAAAAAAAAAAAAAAAAAAAAAAAAAAAAAAAAAAAAAAAAAAAAAAAAAAAAAAAAAAAAAAAAAAAAAAAAADcu0RmxKU2/6mMJf+WehP/kXUN/6OHIP+3mS7/z7A9/+LBR//iwUf/4sFH/+LBR//iwUf/4sFHcAAAAAAAAAAAAAAAAAAAAAAAAAAAAAAAAAAAAAAAAAAAAAAAAAAAAAAAAAAAAAAAAAAAAAAAAAAAAAAAAAAAAAAAAAAAAAAAAAAAAAAAAAAAAAAAAAAAAAAAAAAAAAAAAOLBR1ziwUf14sFH/+LBR//iwUf/4sFH/+LBR//iwUf/4sFH/+LBR//iwUf/4sFHuAAAAAAAAAAAAAAAAAAAAAAAAAAAAAAAAAAAAAAAAAAAAAAAAAAAAAAAAAAAAAAAAAAAAAAAAAAAAAAAAAAAAAAAAAAAAAAAAAAAAAAAAAAAAAAAAAAAAAAAAAAAAAAAAAAAAAAAAAAA4sFHHOLBR6LiwUf14sFH/+LBR//iwUf/4sFH/+LBR//iwUf/4sFHmeLBRwoAAAAAAAAAAAAAAAAAAAAAAAAAAAAAAAAAAAAAAAAAAAAAAAAAAAAAAAAAAAAAAAAAAAAAAAAAAAAAAAAAAAAAAAAAAAAAAAAAAAAAAAAAAAAAAAAAAAAAAAAAAAAAAAAAAAAAAAAAAAAAAAAAAAAA4sFHDeLBR1LiwUeF4sFHmeLBR5niwUdx4sFHHwAAAAAAAAAAAAAAAAAAAAAAAAAAAAAAAAAAAAAAAAAAAAAAAAAAAAAAAAAAAAAAAAAAAAAAAAAAAAAAAAAAAAAAAAAAAAAAAAAAAAAAAAAAAAAAAAAAAAAAAAAAAAAAAAAAAAAAAAAAAAAAAAAAAAAAAAAAAAAAAAAAAAAAAAAAAAAAAAAAAAAAAAAAAAAAAAAAAAAAAAAAAAAAAAAAAAAAAAAAAAAAAAAAAAAAAAAAAAAAAAAAAAAAAAAAAAAAAAAAAAAAAAAAAAAAAP/////4AAAA/8Af//gAAAD/AAD/+AAAAPwAAA/4AAAA+AAAA/gAAADwAAAB+AAAAPAAAAB4AAAA4AAAADgAAADgAAAAGAAAAMAAAAAYAAAAwAAAAAgAAACAAAAACAAAAIAAAAAIAAAAgAAAAAgAAACAAAAACAAAAIAAAAAIAAAAgAAAAAgAAACAAAAAGAAAAMAAAAAYAAAAwAAAADgAAADgAAAAeAAAAPAAAAH4AAAA/AAAA/gAAAD/AAAH+AAAAP+AAA/4AAAA/8AAH/gAAAD/4AAf+AAAAP/wAD/4AAAA//gAf/gAAAD//AB/+AAAAP//Af/4AAAA//////gAAAA=;fontFamily=Helvetica;" vertex="1" parent="S_Zhk84kwY3klK829ZPG-49">
          <mxGeometry x="58" y="4.5" width="23.13" height="20" as="geometry" />
        </mxCell>
        <mxCell id="S_Zhk84kwY3klK829ZPG-52" value="" style="group;fontFamily=Helvetica;" vertex="1" connectable="0" parent="1">
          <mxGeometry x="1019.9999999999999" y="1030" width="98.12000000000012" height="29" as="geometry" />
        </mxCell>
        <mxCell id="S_Zhk84kwY3klK829ZPG-53" value="" style="shape=image;verticalLabelPosition=bottom;labelBackgroundColor=default;verticalAlign=top;aspect=fixed;imageAspect=0;image=https://hddm.readthedocs.io/en/latest/_images/DDM.svg;fontFamily=Helvetica;" vertex="1" parent="S_Zhk84kwY3klK829ZPG-52">
          <mxGeometry x="62.180000000000064" y="5.5" width="35.94" height="20" as="geometry" />
        </mxCell>
        <mxCell id="S_Zhk84kwY3klK829ZPG-54" value="&lt;font style=&quot;&quot;&gt;&lt;span style=&quot;font-size: 18px;&quot;&gt;HDDM&lt;/span&gt;&lt;br&gt;&lt;/font&gt;" style="text;html=1;strokeColor=none;fillColor=none;align=center;verticalAlign=middle;whiteSpace=wrap;rounded=0;fontFamily=Helvetica;" vertex="1" parent="S_Zhk84kwY3klK829ZPG-52">
          <mxGeometry width="68.18" height="29" as="geometry" />
        </mxCell>
        <mxCell id="S_Zhk84kwY3klK829ZPG-55" style="edgeStyle=orthogonalEdgeStyle;rounded=0;orthogonalLoop=1;jettySize=auto;html=1;entryX=0.467;entryY=0.026;entryDx=0;entryDy=0;entryPerimeter=0;curved=1;fontFamily=Helvetica;" edge="1" parent="1" source="S_Zhk84kwY3klK829ZPG-22" target="S_Zhk84kwY3klK829ZPG-3">
          <mxGeometry relative="1" as="geometry">
            <Array as="points">
              <mxPoint x="1070" y="730" />
              <mxPoint x="1230" y="730" />
            </Array>
          </mxGeometry>
        </mxCell>
        <mxCell id="S_Zhk84kwY3klK829ZPG-56" style="edgeStyle=orthogonalEdgeStyle;rounded=0;orthogonalLoop=1;jettySize=auto;html=1;fontFamily=Helvetica;" edge="1" parent="1" source="S_Zhk84kwY3klK829ZPG-30">
          <mxGeometry relative="1" as="geometry">
            <mxPoint x="1225.776460535386" y="887.7764246323529" as="targetPoint" />
          </mxGeometry>
        </mxCell>
        <mxCell id="S_Zhk84kwY3klK829ZPG-57" value="&lt;font color=&quot;#ea6b66&quot; style=&quot;font-size: 20px;&quot;&gt;dockerHDDM&lt;/font&gt;" style="edgeLabel;html=1;align=center;verticalAlign=middle;resizable=0;points=[];labelBackgroundColor=none;fontFamily=Helvetica;" vertex="1" connectable="0" parent="1">
          <mxGeometry x="1304.9999999999998" y="249.99526315789478" as="geometry">
            <mxPoint x="105" y="57" as="offset" />
          </mxGeometry>
        </mxCell>
      </root>
    </mxGraphModel>
  </diagram>
  <diagram id="C5RBs43oDa-KdzZeNtuy" name="2">
    <mxGraphModel dx="1002" dy="1125" grid="1" gridSize="10" guides="1" tooltips="1" connect="1" arrows="1" fold="1" page="1" pageScale="1" pageWidth="827" pageHeight="1169" math="0" shadow="0">
      <root>
        <mxCell id="WIyWlLk6GJQsqaUBKTNV-0" />
        <mxCell id="WIyWlLk6GJQsqaUBKTNV-1" parent="WIyWlLk6GJQsqaUBKTNV-0" />
        <mxCell id="iwcB10hV3ur6C0tzs4EO-96" value="" style="rounded=0;whiteSpace=wrap;html=1;dashed=1;dashPattern=1 4;fillColor=#dae8fc;strokeColor=#6c8ebf;fontFamily=Helvetica;" parent="WIyWlLk6GJQsqaUBKTNV-1" vertex="1">
          <mxGeometry x="950" y="40" width="600" height="690" as="geometry" />
        </mxCell>
        <mxCell id="iwcB10hV3ur6C0tzs4EO-147" value="" style="rounded=1;whiteSpace=wrap;html=1;fillColor=#f8cecc;strokeColor=#b85450;" parent="WIyWlLk6GJQsqaUBKTNV-1" vertex="1">
          <mxGeometry x="1140" y="290" width="404" height="120" as="geometry" />
        </mxCell>
        <mxCell id="iwcB10hV3ur6C0tzs4EO-106" value="" style="rounded=0;whiteSpace=wrap;html=1;dashed=1;dashPattern=1 4;fillColor=#d5e8d4;strokeColor=#82b366;fontFamily=Helvetica;" parent="WIyWlLk6GJQsqaUBKTNV-1" vertex="1">
          <mxGeometry x="950" y="740" width="600" height="340" as="geometry" />
        </mxCell>
        <mxCell id="iwcB10hV3ur6C0tzs4EO-8" style="edgeStyle=orthogonalEdgeStyle;rounded=0;orthogonalLoop=1;jettySize=auto;html=1;entryX=0;entryY=0.5;entryDx=0;entryDy=0;exitX=0.5;exitY=1;exitDx=0;exitDy=0;fontFamily=Helvetica;" parent="WIyWlLk6GJQsqaUBKTNV-1" source="_omumcHyRCVhEnTbsayu-2" target="_omumcHyRCVhEnTbsayu-3" edge="1">
          <mxGeometry relative="1" as="geometry" />
        </mxCell>
        <mxCell id="_omumcHyRCVhEnTbsayu-2" value="docker installation" style="rounded=1;whiteSpace=wrap;html=1;fontSize=22;glass=0;strokeWidth=1;shadow=0;fontFamily=Helvetica;" parent="WIyWlLk6GJQsqaUBKTNV-1" vertex="1">
          <mxGeometry x="970" y="200" width="160" height="80" as="geometry" />
        </mxCell>
        <mxCell id="iwcB10hV3ur6C0tzs4EO-3" style="edgeStyle=orthogonalEdgeStyle;rounded=0;orthogonalLoop=1;jettySize=auto;html=1;exitX=1;exitY=0.5;exitDx=0;exitDy=0;entryX=0;entryY=0.5;entryDx=0;entryDy=0;fontFamily=Helvetica;" parent="WIyWlLk6GJQsqaUBKTNV-1" source="_omumcHyRCVhEnTbsayu-3" target="xVefnsBb8wPyfSyLe52i-1" edge="1">
          <mxGeometry relative="1" as="geometry" />
        </mxCell>
        <mxCell id="_omumcHyRCVhEnTbsayu-3" value="pull image&lt;br&gt;&lt;i&gt;&lt;font style=&quot;font-size: 16px;&quot;&gt;fig 3A&lt;/font&gt;&lt;/i&gt;" style="rounded=1;whiteSpace=wrap;html=1;fontSize=22;glass=0;strokeWidth=1;shadow=0;align=center;fontFamily=Helvetica;" parent="WIyWlLk6GJQsqaUBKTNV-1" vertex="1">
          <mxGeometry x="1150" y="320" width="160" height="80" as="geometry" />
        </mxCell>
        <mxCell id="iwcB10hV3ur6C0tzs4EO-22" style="edgeStyle=orthogonalEdgeStyle;rounded=0;orthogonalLoop=1;jettySize=auto;html=1;exitX=0.5;exitY=1;exitDx=0;exitDy=0;entryX=0.5;entryY=0;entryDx=0;entryDy=0;fontFamily=Helvetica;" parent="WIyWlLk6GJQsqaUBKTNV-1" source="xVefnsBb8wPyfSyLe52i-1" target="iwcB10hV3ur6C0tzs4EO-20" edge="1">
          <mxGeometry relative="1" as="geometry" />
        </mxCell>
        <mxCell id="xVefnsBb8wPyfSyLe52i-1" value="run container&lt;br&gt;&lt;i style=&quot;border-color: var(--border-color);&quot;&gt;&lt;font style=&quot;font-size: 16px;&quot;&gt;fig 3B&lt;/font&gt;&lt;/i&gt;" style="rounded=1;whiteSpace=wrap;html=1;fontSize=22;glass=0;strokeWidth=1;shadow=0;align=center;fontFamily=Helvetica;" parent="WIyWlLk6GJQsqaUBKTNV-1" vertex="1">
          <mxGeometry x="1350" y="320" width="160" height="80" as="geometry" />
        </mxCell>
        <mxCell id="xVefnsBb8wPyfSyLe52i-3" value="" style="image;sketch=0;aspect=fixed;html=1;points=[];align=center;fontSize=12;image=img/lib/mscae/VM_Images.svg;fontFamily=Helvetica;" parent="WIyWlLk6GJQsqaUBKTNV-1" vertex="1">
          <mxGeometry x="1280" y="294.19" width="50" height="46" as="geometry" />
        </mxCell>
        <mxCell id="xVefnsBb8wPyfSyLe52i-4" value="" style="image;aspect=fixed;perimeter=ellipsePerimeter;html=1;align=center;fontSize=12;verticalAlign=top;fontColor=#364149;shadow=0;dashed=0;image=img/lib/cumulus/container.svg;fontFamily=Helvetica;" parent="WIyWlLk6GJQsqaUBKTNV-1" vertex="1">
          <mxGeometry x="1490" y="294.19" width="51.54" height="45.81" as="geometry" />
        </mxCell>
        <mxCell id="iwcB10hV3ur6C0tzs4EO-1" style="edgeStyle=orthogonalEdgeStyle;rounded=0;orthogonalLoop=1;jettySize=auto;html=1;exitX=0.5;exitY=1;exitDx=0;exitDy=0;fontFamily=Helvetica;" parent="WIyWlLk6GJQsqaUBKTNV-1" source="iwcB10hV3ur6C0tzs4EO-0" target="_omumcHyRCVhEnTbsayu-3" edge="1">
          <mxGeometry relative="1" as="geometry" />
        </mxCell>
        <mxCell id="iwcB10hV3ur6C0tzs4EO-2" value="&lt;font style=&quot;font-size: 20px;&quot;&gt;yes&lt;/font&gt;" style="edgeLabel;html=1;align=center;verticalAlign=middle;resizable=0;points=[];labelBackgroundColor=none;fontFamily=Helvetica;" parent="iwcB10hV3ur6C0tzs4EO-1" vertex="1" connectable="0">
          <mxGeometry x="-0.0466" y="1" relative="1" as="geometry">
            <mxPoint x="27" y="-19" as="offset" />
          </mxGeometry>
        </mxCell>
        <mxCell id="iwcB10hV3ur6C0tzs4EO-6" style="edgeStyle=orthogonalEdgeStyle;rounded=0;orthogonalLoop=1;jettySize=auto;html=1;entryX=0.5;entryY=0;entryDx=0;entryDy=0;exitX=0;exitY=0.5;exitDx=0;exitDy=0;fontFamily=Helvetica;" parent="WIyWlLk6GJQsqaUBKTNV-1" source="iwcB10hV3ur6C0tzs4EO-0" target="_omumcHyRCVhEnTbsayu-2" edge="1">
          <mxGeometry relative="1" as="geometry">
            <mxPoint x="1124.0014285714283" y="120.00000000000023" as="sourcePoint" />
            <mxPoint x="1029.62" y="207" as="targetPoint" />
          </mxGeometry>
        </mxCell>
        <mxCell id="iwcB10hV3ur6C0tzs4EO-9" value="&lt;font style=&quot;font-size: 20px;&quot;&gt;no&lt;/font&gt;" style="edgeLabel;html=1;align=center;verticalAlign=middle;resizable=0;points=[];labelBackgroundColor=none;fontFamily=Helvetica;" parent="iwcB10hV3ur6C0tzs4EO-6" vertex="1" connectable="0">
          <mxGeometry x="-0.4842" y="3" relative="1" as="geometry">
            <mxPoint y="-20" as="offset" />
          </mxGeometry>
        </mxCell>
        <mxCell id="iwcB10hV3ur6C0tzs4EO-0" value="&lt;ul style=&quot;box-sizing: border-box; border-width: 0px; border-style: solid; border-color: currentcolor; --tw-border-spacing-x: 0; --tw-border-spacing-y: 0; --tw-translate-x: 0; --tw-translate-y: 0; --tw-rotate: 0; --tw-skew-x: 0; --tw-skew-y: 0; --tw-scale-x: 1; --tw-scale-y: 1; --tw-pan-x: ; --tw-pan-y: ; --tw-pinch-zoom: ; --tw-scroll-snap-strictness: proximity; --tw-gradient-from-position: ; --tw-gradient-via-position: ; --tw-gradient-to-position: ; --tw-ordinal: ; --tw-slashed-zero: ; --tw-numeric-figure: ; --tw-numeric-spacing: ; --tw-numeric-fraction: ; --tw-ring-inset: ; --tw-ring-offset-width: 0px; --tw-ring-offset-color: #fff; --tw-ring-color: rgb(0 125 178 / 0.5); --tw-ring-offset-shadow: 0 0 #0000; --tw-ring-shadow: 0 0 #0000; --tw-shadow: 0 0 #0000; --tw-shadow-colored: 0 0 #0000; --tw-blur: ; --tw-brightness: ; --tw-contrast: ; --tw-grayscale: ; --tw-hue-rotate: ; --tw-invert: ; --tw-saturate: ; --tw-sepia: ; --tw-drop-shadow: ; --tw-backdrop-blur: ; --tw-backdrop-brightness: ; --tw-backdrop-contrast: ; --tw-backdrop-grayscale: ; --tw-backdrop-hue-rotate: ; --tw-backdrop-invert: ; --tw-backdrop-opacity: ; --tw-backdrop-saturate: ; --tw-backdrop-sepia: ; list-style: none; margin: 0px; padding: 0px; color: rgb(27, 30, 37); font-size: 26px; background-color: rgb(255, 255, 255);&quot; aria-labelledby=&quot;alternatives-heading&quot;&gt;&lt;li style=&quot;box-sizing: border-box; border-width: 0px; border-style: solid; border-color: currentcolor; --tw-border-spacing-x: 0; --tw-border-spacing-y: 0; --tw-translate-x: 0; --tw-translate-y: 0; --tw-rotate: 0; --tw-skew-x: 0; --tw-skew-y: 0; --tw-scale-x: 1; --tw-scale-y: 1; --tw-pan-x: ; --tw-pan-y: ; --tw-pinch-zoom: ; --tw-scroll-snap-strictness: proximity; --tw-gradient-from-position: ; --tw-gradient-via-position: ; --tw-gradient-to-position: ; --tw-ordinal: ; --tw-slashed-zero: ; --tw-numeric-figure: ; --tw-numeric-spacing: ; --tw-numeric-fraction: ; --tw-ring-inset: ; --tw-ring-offset-width: 0px; --tw-ring-offset-color: #fff; --tw-ring-color: rgb(0 125 178 / 0.5); --tw-ring-offset-shadow: 0 0 #0000; --tw-ring-shadow: 0 0 #0000; --tw-shadow: 0 0 #0000; --tw-shadow-colored: 0 0 #0000; --tw-blur: ; --tw-brightness: ; --tw-contrast: ; --tw-grayscale: ; --tw-hue-rotate: ; --tw-invert: ; --tw-saturate: ; --tw-sepia: ; --tw-drop-shadow: ; --tw-backdrop-blur: ; --tw-backdrop-brightness: ; --tw-backdrop-contrast: ; --tw-backdrop-grayscale: ; --tw-backdrop-hue-rotate: ; --tw-backdrop-invert: ; --tw-backdrop-opacity: ; --tw-backdrop-saturate: ; --tw-backdrop-sepia: ; padding-left: 15px; padding-right: 40px; margin-left: -15px; margin-right: -40px; pointer-events: initial; cursor: initial; list-style-type: none; font-size: 22px;&quot; data-testid=&quot;translator-target-result-as-text-entry&quot; class=&quot;lmt__translations_as_text__item&quot;&gt;&lt;div style=&quot;&quot;&gt;&lt;span style=&quot;background-color: rgba(0, 0, 0, 0); color: rgb(0, 0, 0); font-size: inherit;&quot;&gt;Is docker&lt;/span&gt;&lt;/div&gt;&lt;button style=&quot;border-width: initial; border-style: none; border-color: initial; --tw-border-spacing-x: 0; --tw-border-spacing-y: 0; --tw-translate-x: 0; --tw-translate-y: 0; --tw-rotate: 0; --tw-skew-x: 0; --tw-skew-y: 0; --tw-scale-x: 1; --tw-scale-y: 1; --tw-pan-x: ; --tw-pan-y: ; --tw-pinch-zoom: ; --tw-scroll-snap-strictness: proximity; --tw-gradient-from-position: ; --tw-gradient-via-position: ; --tw-gradient-to-position: ; --tw-ordinal: ; --tw-slashed-zero: ; --tw-numeric-figure: ; --tw-numeric-spacing: ; --tw-numeric-fraction: ; --tw-ring-inset: ; --tw-ring-offset-width: 0px; --tw-ring-offset-color: #fff; --tw-ring-color: rgb(0 125 178 / 0.5); --tw-ring-offset-shadow: 0 0 #0000; --tw-ring-shadow: 0 0 #0000; --tw-shadow: 0 0 #0000; --tw-shadow-colored: 0 0 #0000; --tw-blur: ; --tw-brightness: ; --tw-contrast: ; --tw-grayscale: ; --tw-hue-rotate: ; --tw-invert: ; --tw-saturate: ; --tw-sepia: ; --tw-drop-shadow: ; --tw-backdrop-blur: ; --tw-backdrop-brightness: ; --tw-backdrop-contrast: ; --tw-backdrop-grayscale: ; --tw-backdrop-hue-rotate: ; --tw-backdrop-invert: ; --tw-backdrop-opacity: ; --tw-backdrop-saturate: ; --tw-backdrop-sepia: ; font-feature-settings: inherit; font-variation-settings: inherit; font-weight: 400; line-height: inherit; color: rgb(0, 0, 0); margin: 0px; padding: 0px; appearance: button; background-color: rgba(0, 0, 0, 0); cursor: pointer; pointer-events: initial;&quot; aria-description=&quot;点击并应用&quot; lang=&quot;en-US&quot; class=&quot;lmt__translations_as_text__text_btn&quot;&gt;&lt;div style=&quot;&quot;&gt;&lt;span style=&quot;background-color: rgba(0, 0, 0, 0); font-size: inherit;&quot;&gt;&lt;font&gt;installed?&lt;/font&gt;&lt;/span&gt;&lt;/div&gt;&lt;/button&gt;&lt;/li&gt;&lt;/ul&gt;" style="rhombus;whiteSpace=wrap;html=1;shadow=0;fontFamily=Helvetica;fontSize=22;align=center;strokeWidth=1;spacing=6;spacingTop=-4;fillColor=default;gradientColor=none;fillStyle=auto;" parent="WIyWlLk6GJQsqaUBKTNV-1" vertex="1">
          <mxGeometry x="1140" y="50" width="180" height="140" as="geometry" />
        </mxCell>
        <mxCell id="iwcB10hV3ur6C0tzs4EO-25" style="edgeStyle=orthogonalEdgeStyle;rounded=0;orthogonalLoop=1;jettySize=auto;html=1;exitX=0;exitY=0.5;exitDx=0;exitDy=0;fontFamily=Helvetica;" parent="WIyWlLk6GJQsqaUBKTNV-1" source="iwcB10hV3ur6C0tzs4EO-20" target="iwcB10hV3ur6C0tzs4EO-23" edge="1">
          <mxGeometry relative="1" as="geometry" />
        </mxCell>
        <mxCell id="iwcB10hV3ur6C0tzs4EO-29" value="&lt;font style=&quot;font-size: 20px;&quot;&gt;yes&lt;/font&gt;" style="edgeLabel;html=1;align=center;verticalAlign=middle;resizable=0;points=[];labelBackgroundColor=none;fontFamily=Helvetica;" parent="iwcB10hV3ur6C0tzs4EO-25" vertex="1" connectable="0">
          <mxGeometry x="-0.6299" y="-2" relative="1" as="geometry">
            <mxPoint y="-18" as="offset" />
          </mxGeometry>
        </mxCell>
        <mxCell id="iwcB10hV3ur6C0tzs4EO-26" style="edgeStyle=orthogonalEdgeStyle;rounded=0;orthogonalLoop=1;jettySize=auto;html=1;exitX=1;exitY=0.5;exitDx=0;exitDy=0;entryX=0.5;entryY=0;entryDx=0;entryDy=0;fontFamily=Helvetica;" parent="WIyWlLk6GJQsqaUBKTNV-1" source="iwcB10hV3ur6C0tzs4EO-20" target="iwcB10hV3ur6C0tzs4EO-24" edge="1">
          <mxGeometry relative="1" as="geometry" />
        </mxCell>
        <mxCell id="iwcB10hV3ur6C0tzs4EO-20" value="&lt;ul style=&quot;box-sizing: border-box; border-width: 0px; border-style: solid; border-color: currentcolor; --tw-border-spacing-x: 0; --tw-border-spacing-y: 0; --tw-translate-x: 0; --tw-translate-y: 0; --tw-rotate: 0; --tw-skew-x: 0; --tw-skew-y: 0; --tw-scale-x: 1; --tw-scale-y: 1; --tw-pan-x: ; --tw-pan-y: ; --tw-pinch-zoom: ; --tw-scroll-snap-strictness: proximity; --tw-gradient-from-position: ; --tw-gradient-via-position: ; --tw-gradient-to-position: ; --tw-ordinal: ; --tw-slashed-zero: ; --tw-numeric-figure: ; --tw-numeric-spacing: ; --tw-numeric-fraction: ; --tw-ring-inset: ; --tw-ring-offset-width: 0px; --tw-ring-offset-color: #fff; --tw-ring-color: rgb(0 125 178 / 0.5); --tw-ring-offset-shadow: 0 0 #0000; --tw-ring-shadow: 0 0 #0000; --tw-shadow: 0 0 #0000; --tw-shadow-colored: 0 0 #0000; --tw-blur: ; --tw-brightness: ; --tw-contrast: ; --tw-grayscale: ; --tw-hue-rotate: ; --tw-invert: ; --tw-saturate: ; --tw-sepia: ; --tw-drop-shadow: ; --tw-backdrop-blur: ; --tw-backdrop-brightness: ; --tw-backdrop-contrast: ; --tw-backdrop-grayscale: ; --tw-backdrop-hue-rotate: ; --tw-backdrop-invert: ; --tw-backdrop-opacity: ; --tw-backdrop-saturate: ; --tw-backdrop-sepia: ; list-style: none; margin: 0px; padding: 0px; color: rgb(27, 30, 37); font-size: 26px; background-color: rgb(255, 255, 255);&quot; aria-labelledby=&quot;alternatives-heading&quot;&gt;&lt;li style=&quot;box-sizing: border-box; border-width: 0px; border-style: solid; border-color: currentcolor; --tw-border-spacing-x: 0; --tw-border-spacing-y: 0; --tw-translate-x: 0; --tw-translate-y: 0; --tw-rotate: 0; --tw-skew-x: 0; --tw-skew-y: 0; --tw-scale-x: 1; --tw-scale-y: 1; --tw-pan-x: ; --tw-pan-y: ; --tw-pinch-zoom: ; --tw-scroll-snap-strictness: proximity; --tw-gradient-from-position: ; --tw-gradient-via-position: ; --tw-gradient-to-position: ; --tw-ordinal: ; --tw-slashed-zero: ; --tw-numeric-figure: ; --tw-numeric-spacing: ; --tw-numeric-fraction: ; --tw-ring-inset: ; --tw-ring-offset-width: 0px; --tw-ring-offset-color: #fff; --tw-ring-color: rgb(0 125 178 / 0.5); --tw-ring-offset-shadow: 0 0 #0000; --tw-ring-shadow: 0 0 #0000; --tw-shadow: 0 0 #0000; --tw-shadow-colored: 0 0 #0000; --tw-blur: ; --tw-brightness: ; --tw-contrast: ; --tw-grayscale: ; --tw-hue-rotate: ; --tw-invert: ; --tw-saturate: ; --tw-sepia: ; --tw-drop-shadow: ; --tw-backdrop-blur: ; --tw-backdrop-brightness: ; --tw-backdrop-contrast: ; --tw-backdrop-grayscale: ; --tw-backdrop-hue-rotate: ; --tw-backdrop-invert: ; --tw-backdrop-opacity: ; --tw-backdrop-saturate: ; --tw-backdrop-sepia: ; padding-left: 15px; padding-right: 40px; margin-left: -15px; margin-right: -40px; pointer-events: initial; cursor: initial; list-style-type: none; font-size: 22px;&quot; data-testid=&quot;translator-target-result-as-text-entry&quot; class=&quot;lmt__translations_as_text__item&quot;&gt;&lt;div style=&quot;&quot;&gt;&lt;ul style=&quot;border-color: currentcolor; color: rgb(0, 0, 0); box-sizing: border-box; border-width: 0px; border-style: solid; --tw-border-spacing-x: 0; --tw-border-spacing-y: 0; --tw-translate-x: 0; --tw-translate-y: 0; --tw-rotate: 0; --tw-skew-x: 0; --tw-skew-y: 0; --tw-scale-x: 1; --tw-scale-y: 1; --tw-pan-x: ; --tw-pan-y: ; --tw-pinch-zoom: ; --tw-scroll-snap-strictness: proximity; --tw-gradient-from-position: ; --tw-gradient-via-position: ; --tw-gradient-to-position: ; --tw-ordinal: ; --tw-slashed-zero: ; --tw-numeric-figure: ; --tw-numeric-spacing: ; --tw-numeric-fraction: ; --tw-ring-inset: ; --tw-ring-offset-width: 0px; --tw-ring-offset-color: #fff; --tw-ring-color: rgb(0 125 178 / 0.5); --tw-ring-offset-shadow: 0 0 #0000; --tw-ring-shadow: 0 0 #0000; --tw-shadow: 0 0 #0000; --tw-shadow-colored: 0 0 #0000; --tw-blur: ; --tw-brightness: ; --tw-contrast: ; --tw-grayscale: ; --tw-hue-rotate: ; --tw-invert: ; --tw-saturate: ; --tw-sepia: ; --tw-drop-shadow: ; --tw-backdrop-blur: ; --tw-backdrop-brightness: ; --tw-backdrop-contrast: ; --tw-backdrop-grayscale: ; --tw-backdrop-hue-rotate: ; --tw-backdrop-invert: ; --tw-backdrop-opacity: ; --tw-backdrop-saturate: ; --tw-backdrop-sepia: ; list-style: none; margin: 0px; padding: 0px; font-size: 26px;&quot; aria-labelledby=&quot;alternatives-heading&quot;&gt;&lt;li style=&quot;border-color: currentcolor; box-sizing: border-box; border-width: 0px; border-style: solid; --tw-border-spacing-x: 0; --tw-border-spacing-y: 0; --tw-translate-x: 0; --tw-translate-y: 0; --tw-rotate: 0; --tw-skew-x: 0; --tw-skew-y: 0; --tw-scale-x: 1; --tw-scale-y: 1; --tw-pan-x: ; --tw-pan-y: ; --tw-pinch-zoom: ; --tw-scroll-snap-strictness: proximity; --tw-gradient-from-position: ; --tw-gradient-via-position: ; --tw-gradient-to-position: ; --tw-ordinal: ; --tw-slashed-zero: ; --tw-numeric-figure: ; --tw-numeric-spacing: ; --tw-numeric-fraction: ; --tw-ring-inset: ; --tw-ring-offset-width: 0px; --tw-ring-offset-color: #fff; --tw-ring-color: rgb(0 125 178 / 0.5); --tw-ring-offset-shadow: 0 0 #0000; --tw-ring-shadow: 0 0 #0000; --tw-shadow: 0 0 #0000; --tw-shadow-colored: 0 0 #0000; --tw-blur: ; --tw-brightness: ; --tw-contrast: ; --tw-grayscale: ; --tw-hue-rotate: ; --tw-invert: ; --tw-saturate: ; --tw-sepia: ; --tw-drop-shadow: ; --tw-backdrop-blur: ; --tw-backdrop-brightness: ; --tw-backdrop-contrast: ; --tw-backdrop-grayscale: ; --tw-backdrop-hue-rotate: ; --tw-backdrop-invert: ; --tw-backdrop-opacity: ; --tw-backdrop-saturate: ; --tw-backdrop-sepia: ; padding-left: 15px; padding-right: 40px; margin-left: -15px; margin-right: -40px; pointer-events: initial; cursor: initial; list-style-type: none; font-size: 22px;&quot; data-testid=&quot;translator-target-result-as-text-entry&quot; class=&quot;lmt__translations_as_text__item&quot;&gt;Are you a&lt;br style=&quot;border-color: var(--border-color);&quot;&gt;tech savy?&lt;/li&gt;&lt;/ul&gt;&lt;/div&gt;&lt;/li&gt;&lt;/ul&gt;" style="rhombus;whiteSpace=wrap;html=1;shadow=0;fontFamily=Helvetica;fontSize=22;align=center;strokeWidth=1;spacing=6;spacingTop=-4;" parent="WIyWlLk6GJQsqaUBKTNV-1" vertex="1">
          <mxGeometry x="1140" y="470" width="180" height="140" as="geometry" />
        </mxCell>
        <mxCell id="iwcB10hV3ur6C0tzs4EO-31" style="edgeStyle=orthogonalEdgeStyle;rounded=0;orthogonalLoop=1;jettySize=auto;html=1;exitX=1;exitY=0.5;exitDx=0;exitDy=0;entryX=0;entryY=0.5;entryDx=0;entryDy=0;fontFamily=Helvetica;" parent="WIyWlLk6GJQsqaUBKTNV-1" source="iwcB10hV3ur6C0tzs4EO-23" target="iwcB10hV3ur6C0tzs4EO-24" edge="1">
          <mxGeometry relative="1" as="geometry" />
        </mxCell>
        <mxCell id="iwcB10hV3ur6C0tzs4EO-23" value="test drive&lt;br style=&quot;border-color: var(--border-color);&quot;&gt;&lt;i style=&quot;border-color: var(--border-color);&quot;&gt;&lt;font style=&quot;border-color: var(--border-color); font-size: 11px;&quot;&gt;dockerHDDM_primer.ipynb&lt;/font&gt;&lt;/i&gt;" style="rounded=1;whiteSpace=wrap;html=1;fontSize=22;glass=0;strokeWidth=1;shadow=0;align=center;fontFamily=Helvetica;" parent="WIyWlLk6GJQsqaUBKTNV-1" vertex="1">
          <mxGeometry x="990" y="640" width="160" height="80" as="geometry" />
        </mxCell>
        <mxCell id="iwcB10hV3ur6C0tzs4EO-144" style="edgeStyle=orthogonalEdgeStyle;rounded=0;orthogonalLoop=1;jettySize=auto;html=1;exitX=0.5;exitY=1;exitDx=0;exitDy=0;curved=1;fontFamily=Helvetica;" parent="WIyWlLk6GJQsqaUBKTNV-1" source="iwcB10hV3ur6C0tzs4EO-24" edge="1">
          <mxGeometry relative="1" as="geometry">
            <mxPoint x="1230" y="750" as="targetPoint" />
            <Array as="points">
              <mxPoint x="1391" y="730" />
              <mxPoint x="1230" y="730" />
            </Array>
          </mxGeometry>
        </mxCell>
        <mxCell id="iwcB10hV3ur6C0tzs4EO-24" value="deep dive&lt;br style=&quot;border-color: var(--border-color);&quot;&gt;&lt;i style=&quot;border-color: var(--border-color);&quot;&gt;&lt;font style=&quot;border-color: var(--border-color); font-size: 11px;&quot;&gt;dockerHDDM_workflow.ipynb&lt;/font&gt;&lt;/i&gt;" style="rounded=1;whiteSpace=wrap;html=1;fontSize=22;glass=0;strokeWidth=1;shadow=0;align=center;fontFamily=Helvetica;" parent="WIyWlLk6GJQsqaUBKTNV-1" vertex="1">
          <mxGeometry x="1311" y="640" width="160" height="80" as="geometry" />
        </mxCell>
        <mxCell id="iwcB10hV3ur6C0tzs4EO-30" value="&lt;font style=&quot;font-size: 20px;&quot;&gt;no&lt;br&gt;&lt;/font&gt;" style="edgeLabel;html=1;align=center;verticalAlign=middle;resizable=0;points=[];labelBackgroundColor=none;fontFamily=Helvetica;" parent="WIyWlLk6GJQsqaUBKTNV-1" vertex="1" connectable="0">
          <mxGeometry x="1348.0018181818182" y="513" as="geometry">
            <mxPoint x="2" y="5" as="offset" />
          </mxGeometry>
        </mxCell>
        <mxCell id="xVefnsBb8wPyfSyLe52i-0" value="" style="shape=image;html=1;verticalAlign=top;verticalLabelPosition=bottom;labelBackgroundColor=#ffffff;imageAspect=0;aspect=fixed;image=https://cdn1.iconfinder.com/data/icons/social-media-2106/24/social_media_social_media_logo_docker-128.png;fontFamily=Helvetica;" parent="WIyWlLk6GJQsqaUBKTNV-1" vertex="1">
          <mxGeometry x="1330" y="80" width="70" height="70" as="geometry" />
        </mxCell>
        <mxCell id="iwcB10hV3ur6C0tzs4EO-98" value="" style="shape=image;verticalLabelPosition=bottom;labelBackgroundColor=default;verticalAlign=top;aspect=fixed;imageAspect=0;image=data:image/svg+xml,PHN2ZyB4bWxuczp4bGluaz0iaHR0cDovL3d3dy53My5vcmcvMTk5OS94bGluayIgeG1sbnM9Imh0dHA6Ly93d3cudzMub3JnLzIwMDAvc3ZnIiBoZWlnaHQ9IjIwMCIgd2lkdGg9IjIwMCIgaWQ9Im14X25fMTY5NTU0MDM5MTY1OSIgdmVyc2lvbj0iMS4xIiB2aWV3Qm94PSIwIDAgMTAyNCAxMDI0IiBjbGFzcz0iaWNvbiI+PHBhdGggZmlsbD0iI0Y1N0MwMCIgZD0iTTg4NC43MzYgMzM2LjM4NGMtNTguODgtMTUwLjAxNi0yMDQuOC0yNTYuNTEyLTM3NS44MDgtMjU2LjUxMnMtMzE3LjQ0IDEwNi40OTYtMzc2LjMyIDI1Ni41MTJDMjM1LjUyIDI1My45NTIgMzY2LjA4IDIwNC44IDUwOC40MTYgMjA0LjhjMTQyLjMzNiAwIDI3Mi44OTYgNDkuMTUyIDM3Ni4zMiAxMzEuNTg0eiBtLTM3Ni4zMiA0MzIuNjRjLTE0MC4yODggMC0yNjkuMzEyLTQ4LjEyOC0zNzEuNzEyLTEyOC41MTIgNjEuNDQgMTQ0Ljg5NiAyMDQuOCAyNDYuNzg0IDM3Mi4yMjQgMjQ2Ljc4NHMzMTAuNzg0LTEwMS44ODggMzcyLjIyNC0yNDYuNzg0Yy0xMDIuOTEyIDgwLjg5Ni0yMzIuNDQ4IDEyOC41MTItMzcyLjczNiAxMjguNTEyeiIvPjxwYXRoIGZpbGw9IiM5RkEwQTAiIGQ9Ik05OC4zMDQgMTQzLjg3MmMwIDI0LjU3NiAxOS45NjggNDQuNTQ0IDQ0LjU0NCA0NC41NDRzNDQuNTQ0LTE5Ljk2OCA0NC41NDQtNDQuNTQ0YzAtMjQuNTc2LTE5Ljk2OC00NC41NDQtNDQuNTQ0LTQ0LjU0NHMtNDQuNTQ0IDE5Ljk2OC00NC41NDQgNDQuNTQ0ek03NDMuOTM2IDYyLjk3NmMwIDMzLjc5MiAyNy4xMzYgNjAuOTI4IDYwLjkyOCA2MC45MjggMzMuNzkyIDAgNjAuOTI4LTI3LjEzNiA2MC45MjgtNjAuOTI4UzgzOC42NTYgMi4wNDggODA0Ljg2NCAyLjA0OGMtMzMuNzkyIDAtNjAuOTI4IDI3LjEzNi02MC45MjggNjAuOTI4ek0xMjYuNDY0IDk0My42MTZjMCA0My4wMDggMzQuODE2IDc4LjMzNiA3OC4zMzYgNzguMzM2czc4LjMzNi0zNC44MTYgNzguMzM2LTc4LjMzNmMwLTQzLjAwOC0zNC44MTYtNzguMzM2LTc4LjMzNi03OC4zMzZzLTc4LjMzNiAzNS4zMjgtNzguMzM2IDc4LjMzNnoiLz48cGF0aCBkPSJNMTA4LjAzMiAzNjAuNDQ4aDk4LjgxNnYxMS4yNjRoLTEzLjgyNGMtNS42MzIgMC05LjcyOCAxLjAyNC0xMS43NzYgMy4wNzItMi41NiAyLjA0OC0zLjU4NCA1LjEyLTMuNTg0IDguNzA0djE0NC44OTZjMCAxMS4yNjQtMi41NiAyMS41MDQtOC4xOTIgMzAuMjA4LTUuNjMyIDkuMjE2LTEzLjMxMiAxNi4zODQtMjQuMDY0IDIxLjUwNC0xMC4yNCA1LjEyLTIyLjUyOCA4LjE5Mi0zNS4zMjggOC4xOTItMTcuOTIgMC0zMi43NjgtNS4xMi00NC4wMzItMTUuODcyLTExLjI2NC0xMC43NTItMTYuODk2LTIzLjU1Mi0xNi44OTYtMzguNCAwLTExLjI2NCAzLjA3Mi0yMC40OCA4LjcwNC0yNy4xMzYgNS42MzItNi42NTYgMTIuOC0xMC4yNCAyMC45OTItMTAuMjQgNi42NTYgMCAxMi4yODggMi4wNDggMTYuODk2IDYuNjU2IDQuNjA4IDQuNjA4IDYuNjU2IDkuNzI4IDYuNjU2IDE2Ljg5NiAwIDUuNjMyLTIuMDQ4IDEwLjc1Mi01LjYzMiAxNC44NDhzLTcuNjggNi4xNDQtMTIuOCA2LjE0NGMtMi4wNDggMC00LjA5Ni0wLjUxMi03LjY4LTEuNTM2LTIuNTYtMS4wMjQtNC42MDgtMS4wMjQtNS42MzItMS4wMjQtMS41MzYgMC0zLjA3MiAwLjUxMi00LjA5NiAyLjA0OC0xLjAyNCAxLjUzNi0xLjUzNiAzLjU4NC0xLjUzNiA2LjE0NCAwIDcuNjggMy41ODQgMTQuMzM2IDExLjI2NCAyMC40OCA3LjY4IDYuMTQ0IDE2Ljg5NiA5LjIxNiAyOC4xNiA5LjIxNiAxMi44IDAgMjIuNTI4LTQuNjA4IDI5LjY5Ni0xMy4zMTJzMTAuNzUyLTIwLjk5MiAxMC43NTItMzYuMzUydi0xNDMuMzZjMC00LjA5Ni0xLjUzNi02LjY1Ni00LjA5Ni04LjcwNC0yLjU2LTIuMDQ4LTcuMTY4LTMuMDcyLTEzLjgyNC0zLjA3MmgtMTkuOTY4bDEuMDI0LTExLjI2NHpNMjcxLjM2IDQzOS44MDhjMi4wNDggMTAuNzUyIDMuNTg0IDIwLjk5MiA0LjA5NiAzMC43MiA3LjE2OC0xMS4yNjQgMTQuMzM2LTE4Ljk0NCAyMi4wMTYtMjMuNTUyIDcuNjgtNC42MDggMTYuMzg0LTcuMTY4IDI1LjA4OC03LjE2OCA5LjcyOCAwIDE4Ljk0NCAzLjA3MiAyNy42NDggOC43MDQgOC43MDQgNi4xNDQgMTUuODcyIDE0Ljg0OCAyMS41MDQgMjYuMTEyczguMTkyIDI0LjU3NiA4LjE5MiAzOC45MTJjMCAyMy4wNC02LjY1NiA0MS45ODQtMTkuOTY4IDU2LjMyLTExLjI2NCAxMi4yODgtMjQuNTc2IDE3LjkyLTM5LjkzNiAxNy45Mi04LjcwNCAwLTE2Ljg5Ni0yLjA0OC0yNC4wNjQtNi42NTYtNy4xNjgtNC42MDgtMTMuMzEyLTExLjI2NC0xOC45NDQtMjAuNDh2NTcuMzQ0YzAgNC42MDggMS4wMjQgNy42OCAzLjA3MiA5LjIxNiAyLjU2IDIuNTYgNi42NTYgMy41ODQgMTEuMjY0IDMuNTg0aDEwLjI0djEwLjc1MkgyMjUuMjh2LTEwLjc1MmgxMC4yNGM0LjYwOCAwIDguNzA0LTEuMDI0IDEwLjc1Mi0zLjA3MiAyLjU2LTIuMDQ4IDMuNTg0LTQuNjA4IDMuNTg0LTcuNjhWNDcyLjA2NGMwLTcuMTY4LTEuNTM2LTExLjc3Ni01LjEyLTE0Ljg0OC0zLjU4NC0zLjA3Mi05LjcyOC00LjYwOC0xOS45NjgtNC42MDh2LTEwLjI0bDQ2LjU5Mi0yLjU2eiBtNDMuNTIgMTMuODI0Yy0xMC43NTIgMC0yMC40OCA1LjEyLTI3LjY0OCAxNS44NzItNy42OCAxMC43NTItMTEuMjY0IDI2LjExMi0xMS4yNjQgNDYuMDggMCAyMC40OCAzLjU4NCAzNS4zMjggMTEuMjY0IDQ1LjA1NiA3LjE2OCA5LjcyOCAxNi44OTYgMTQuMzM2IDI4LjE2IDE0LjMzNiAxMC43NTIgMCAxOC45NDQtNC4wOTYgMjQuNTc2LTEyLjI4OCA3LjE2OC0xMC43NTIgMTEuMjY0LTI2LjYyNCAxMS4yNjQtNDcuNjE2IDAtMjIuMDE2LTMuMDcyLTM3Ljg4OC05LjcyOC00Ny4xMDQtNy42OC05LjcyOC0xNS44NzItMTQuMzM2LTI2LjYyNC0xNC4zMzZ6IG04Ni4wMTYtMTEuMjY0aDY4LjA5NnYxMC4yNGgtNi4xNDRjLTYuMTQ0IDAtMTAuMjQgMS4wMjQtMTIuMjg4IDIuNTYtMi4wNDggMS41MzYtMy4wNzIgMy41ODQtMy4wNzIgNi42NTYgMCAxLjUzNiAwLjUxMiAyLjU2IDEuMDI0IDQuMDk2bDM5LjQyNCA4NC45OTIgMjkuMTg0LTcwLjY1NmMyLjA0OC01LjEyIDMuMDcyLTkuNzI4IDMuMDcyLTE0Ljg0OCAwLTMuNTg0LTEuNTM2LTYuNjU2LTQuNjA4LTguNzA0LTMuMDcyLTIuMDQ4LTguNzA0LTMuNTg0LTE3LjQwOC00LjA5NnYtMTAuMjRoNTguODh2MTAuMjRjLTExLjI2NCAxLjAyNC0xOC45NDQgNi4xNDQtMjMuMDQgMTUuMzZsLTUyLjIyNCAxMjEuODU2Yy04LjcwNCAyMC40OC0xNy45MiAzNC44MTYtMjYuNjI0IDQyLjQ5Ni05LjIxNiA3LjY4LTE4Ljk0NCAxMS43NzYtMjkuMTg0IDExLjc3Ni03LjY4IDAtMTMuODI0LTIuMDQ4LTE4LjQzMi02LjE0NC00LjYwOC00LjA5Ni02LjY1Ni05LjIxNi02LjY1Ni0xNS4zNiAwLTQuNjA4IDEuNTM2LTguMTkyIDQuMDk2LTExLjI2NCAzLjA3Mi0zLjA3MiA2LjE0NC00LjYwOCAxMC43NTItNC42MDggMy41ODQgMCA3LjE2OCAxLjAyNCA5LjcyOCAzLjU4NCAyLjU2IDIuNTYgNC4wOTYgNS42MzIgNC4wOTYgOS4yMTYgMCAxLjAyNCAwIDIuNTYtMC41MTIgNC42MDgtMC41MTIgMS41MzYtMC41MTIgMi41Ni0wLjUxMiAzLjU4NCAwIDIuNTYgMS41MzYgMy41ODQgNC42MDggMy41ODQgMy41ODQgMCA3LjE2OC0xLjAyNCAxMS4yNjQtMy41ODQgNC4wOTYtMi41NiA4LjE5Mi02LjE0NCAxMS43NzYtMTEuNzc2czEwLjI0LTE3LjQwOCAxOC45NDQtMzUuMzI4TDQyMC44NjQgNDY1LjkyYy0yLjA0OC00LjA5Ni00LjA5Ni03LjE2OC03LjE2OC05LjIxNi0zLjA3Mi0yLjA0OC03LjE2OC0zLjA3Mi0xMi44LTQuMDk2di0xMC4yNHogbTIwNi44NDgtNTcuODU2aDEwLjI0djU3Ljg1Nmg0NS41Njh2MTMuODI0aC00NS41Njh2OTAuNjI0YzAgNy42OCAyLjA0OCAxMy44MjQgNS42MzIgMTcuOTIgMy41ODQgNC4wOTYgOC43MDQgNi4xNDQgMTQuMzM2IDYuMTQ0IDYuNjU2IDAgMTIuOC0zLjA3MiAxNy40MDgtOS43MjggNC42MDgtNi4xNDQgNy42OC0xNi44OTYgOC43MDQtMzEuMjMyaDEwLjI0Yy0wLjUxMiAxOC45NDQtNS4xMiAzMi43NjgtMTIuOCA0MS45ODQtOC4xOTIgOS4yMTYtMTguNDMyIDEzLjgyNC0zMS4yMzIgMTMuODI0LTExLjc3NiAwLTIwLjk5Mi0zLjA3Mi0yNy42NDgtOS43MjgtNi42NTYtNi4xNDQtOS43MjgtMTQuODQ4LTkuNzI4LTI1LjA4OFY0NTYuMTkySDU2OC4zMlY0NDUuNDRjMTEuMjY0LTIuMDQ4IDE5Ljk2OC02LjY1NiAyNS42LTEzLjgyNCA4LjE5Mi0xMS4yNjQgMTMuMzEyLTI2LjYyNCAxMy44MjQtNDcuMTA0eiBtMjE2LjA2NCAxMzAuMDQ4aC0xMDEuMzc2YzAuNTEyIDIxLjUwNCA0LjYwOCAzNi44NjQgMTIuMjg4IDQ1LjU2OCA4LjcwNCA5LjcyOCAxOS40NTYgMTQuODQ4IDMzLjI4IDE0Ljg0OCAxOS45NjggMCAzNS44NC0xMS4yNjQgNDcuNjE2LTMzLjc5Mmw5LjcyOCA0LjA5NmMtMTQuODQ4IDI4LjY3Mi0zNS44NCA0My4wMDgtNjQgNDMuMDA4LTE4Ljk0NCAwLTM0LjgxNi02LjY1Ni00Ny42MTYtMjAuNDgtMTIuOC0xMy44MjQtMTkuNDU2LTMxLjIzMi0xOS40NTYtNTIuNzM2IDAtMjMuMDQgNi4xNDQtNDEuNDcyIDE4Ljk0NC01NS44MDggMTIuOC0xNC4zMzYgMjguNjcyLTIwLjk5MiA0Ny4xMDQtMjAuOTkyIDEzLjgyNCAwIDI1LjYgMy41ODQgMzUuMzI4IDEwLjc1MiA5LjcyOCA3LjE2OCAxNy40MDggMTcuNDA4IDIyLjUyOCAzMC4yMDggMy41ODQgOS4yMTYgNS42MzIgMjAuOTkyIDUuNjMyIDM1LjMyOHogbS0xMDEuMzc2LTEwLjc1Mmg2MS40NGMzLjU4NCAwIDYuNjU2LTEuMDI0IDguNzA0LTMuNTg0IDIuMDQ4LTIuNTYgMy4wNzItNi42NTYgMy4wNzItMTIuOCAwLTExLjI2NC0zLjU4NC0yMC40OC0xMC4yNC0yOC4xNnMtMTQuODQ4LTExLjc3Ni0yNC41NzYtMTEuNzc2Yy0xMC4yNCAwLTE5LjQ1NiA0LjYwOC0yNi42MjQgMTMuODI0LTcuNjggOS43MjgtMTEuNzc2IDIzLjU1Mi0xMS43NzYgNDIuNDk2eiBtMTIwLjgzMi02MS40NGw1MS4yLTIuNTZ2NTcuMzQ0YzUuNjMyLTE4Ljk0NCAxMS43NzYtMzMuMjggMTkuNDU2LTQzLjAwOCA3LjY4LTkuNzI4IDE2Ljg5Ni0xNC4zMzYgMjguNjcyLTE0LjMzNiA3LjY4IDAgMTMuODI0IDIuNTYgMTguNDMyIDcuMTY4IDQuNjA4IDQuNjA4IDYuNjU2IDEwLjc1MiA2LjY1NiAxOC45NDQgMCA2LjE0NC0xLjUzNiAxMS4yNjQtNC42MDggMTQuODQ4LTMuMDcyIDMuNTg0LTcuMTY4IDUuMTItMTEuNzc2IDUuMTItNC42MDggMC04LjE5Mi0xLjUzNi0xMC43NTItNC42MDgtMi41Ni0zLjA3Mi00LjA5Ni03LjE2OC00LjA5Ni0xMi4yODggMC0zLjU4NCAxLjAyNC02LjY1NiAyLjU2LTkuMjE2czIuMDQ4LTQuMDk2IDIuMDQ4LTQuNjA4YzAtMS41MzYtMS4wMjQtMi4wNDgtMy4wNzItMi4wNDgtNC4wOTYgMC04LjcwNCAyLjU2LTEzLjgyNCA3LjE2OC03LjE2OCA2LjY1Ni0xMi44IDE1Ljg3Mi0xNi44OTYgMjcuNjQ4LTYuMTQ0IDE4LjQzMi05LjIxNiAzMi43NjgtOS4yMTYgNDQuMDMydjMwLjIwOGMwIDMuNTg0IDEuMDI0IDYuMTQ0IDMuNTg0IDcuNjggMi41NiAyLjA0OCA2LjY1NiAyLjU2IDEyLjI4OCAyLjU2aDE3LjkydjExLjI2NGgtODguMDY0di0xMS4yNjRoMTMuODI0YzQuNjA4IDAgOC4xOTItMS4wMjQgMTAuNzUyLTIuNTYgMi41Ni0yLjA0OCAzLjU4NC00LjA5NiAzLjU4NC02LjY1NlY0NzMuMDg4YzAtNi42NTYtMS41MzYtMTEuNzc2LTQuNjA4LTE0Ljg0OHMtNy4xNjgtNC42MDgtMTIuOC00LjYwOGgtMTIuMjg4bDEuMDI0LTExLjI2NHoiLz48L3N2Zz4=;imageBackground=#FFB366;fontFamily=Helvetica;" parent="WIyWlLk6GJQsqaUBKTNV-1" vertex="1">
          <mxGeometry x="1120" y="620" width="45.81" height="45.81" as="geometry" />
        </mxCell>
        <mxCell id="iwcB10hV3ur6C0tzs4EO-99" value="" style="shape=image;verticalLabelPosition=bottom;labelBackgroundColor=default;verticalAlign=top;aspect=fixed;imageAspect=0;image=data:image/svg+xml,PHN2ZyB4bWxuczp4bGluaz0iaHR0cDovL3d3dy53My5vcmcvMTk5OS94bGluayIgeG1sbnM9Imh0dHA6Ly93d3cudzMub3JnLzIwMDAvc3ZnIiBoZWlnaHQ9IjIwMCIgd2lkdGg9IjIwMCIgaWQ9Im14X25fMTY5NTU0MDM5MTY1OSIgdmVyc2lvbj0iMS4xIiB2aWV3Qm94PSIwIDAgMTAyNCAxMDI0IiBjbGFzcz0iaWNvbiI+PHBhdGggZmlsbD0iI0Y1N0MwMCIgZD0iTTg4NC43MzYgMzM2LjM4NGMtNTguODgtMTUwLjAxNi0yMDQuOC0yNTYuNTEyLTM3NS44MDgtMjU2LjUxMnMtMzE3LjQ0IDEwNi40OTYtMzc2LjMyIDI1Ni41MTJDMjM1LjUyIDI1My45NTIgMzY2LjA4IDIwNC44IDUwOC40MTYgMjA0LjhjMTQyLjMzNiAwIDI3Mi44OTYgNDkuMTUyIDM3Ni4zMiAxMzEuNTg0eiBtLTM3Ni4zMiA0MzIuNjRjLTE0MC4yODggMC0yNjkuMzEyLTQ4LjEyOC0zNzEuNzEyLTEyOC41MTIgNjEuNDQgMTQ0Ljg5NiAyMDQuOCAyNDYuNzg0IDM3Mi4yMjQgMjQ2Ljc4NHMzMTAuNzg0LTEwMS44ODggMzcyLjIyNC0yNDYuNzg0Yy0xMDIuOTEyIDgwLjg5Ni0yMzIuNDQ4IDEyOC41MTItMzcyLjczNiAxMjguNTEyeiIvPjxwYXRoIGZpbGw9IiM5RkEwQTAiIGQ9Ik05OC4zMDQgMTQzLjg3MmMwIDI0LjU3NiAxOS45NjggNDQuNTQ0IDQ0LjU0NCA0NC41NDRzNDQuNTQ0LTE5Ljk2OCA0NC41NDQtNDQuNTQ0YzAtMjQuNTc2LTE5Ljk2OC00NC41NDQtNDQuNTQ0LTQ0LjU0NHMtNDQuNTQ0IDE5Ljk2OC00NC41NDQgNDQuNTQ0ek03NDMuOTM2IDYyLjk3NmMwIDMzLjc5MiAyNy4xMzYgNjAuOTI4IDYwLjkyOCA2MC45MjggMzMuNzkyIDAgNjAuOTI4LTI3LjEzNiA2MC45MjgtNjAuOTI4UzgzOC42NTYgMi4wNDggODA0Ljg2NCAyLjA0OGMtMzMuNzkyIDAtNjAuOTI4IDI3LjEzNi02MC45MjggNjAuOTI4ek0xMjYuNDY0IDk0My42MTZjMCA0My4wMDggMzQuODE2IDc4LjMzNiA3OC4zMzYgNzguMzM2czc4LjMzNi0zNC44MTYgNzguMzM2LTc4LjMzNmMwLTQzLjAwOC0zNC44MTYtNzguMzM2LTc4LjMzNi03OC4zMzZzLTc4LjMzNiAzNS4zMjgtNzguMzM2IDc4LjMzNnoiLz48cGF0aCBkPSJNMTA4LjAzMiAzNjAuNDQ4aDk4LjgxNnYxMS4yNjRoLTEzLjgyNGMtNS42MzIgMC05LjcyOCAxLjAyNC0xMS43NzYgMy4wNzItMi41NiAyLjA0OC0zLjU4NCA1LjEyLTMuNTg0IDguNzA0djE0NC44OTZjMCAxMS4yNjQtMi41NiAyMS41MDQtOC4xOTIgMzAuMjA4LTUuNjMyIDkuMjE2LTEzLjMxMiAxNi4zODQtMjQuMDY0IDIxLjUwNC0xMC4yNCA1LjEyLTIyLjUyOCA4LjE5Mi0zNS4zMjggOC4xOTItMTcuOTIgMC0zMi43NjgtNS4xMi00NC4wMzItMTUuODcyLTExLjI2NC0xMC43NTItMTYuODk2LTIzLjU1Mi0xNi44OTYtMzguNCAwLTExLjI2NCAzLjA3Mi0yMC40OCA4LjcwNC0yNy4xMzYgNS42MzItNi42NTYgMTIuOC0xMC4yNCAyMC45OTItMTAuMjQgNi42NTYgMCAxMi4yODggMi4wNDggMTYuODk2IDYuNjU2IDQuNjA4IDQuNjA4IDYuNjU2IDkuNzI4IDYuNjU2IDE2Ljg5NiAwIDUuNjMyLTIuMDQ4IDEwLjc1Mi01LjYzMiAxNC44NDhzLTcuNjggNi4xNDQtMTIuOCA2LjE0NGMtMi4wNDggMC00LjA5Ni0wLjUxMi03LjY4LTEuNTM2LTIuNTYtMS4wMjQtNC42MDgtMS4wMjQtNS42MzItMS4wMjQtMS41MzYgMC0zLjA3MiAwLjUxMi00LjA5NiAyLjA0OC0xLjAyNCAxLjUzNi0xLjUzNiAzLjU4NC0xLjUzNiA2LjE0NCAwIDcuNjggMy41ODQgMTQuMzM2IDExLjI2NCAyMC40OCA3LjY4IDYuMTQ0IDE2Ljg5NiA5LjIxNiAyOC4xNiA5LjIxNiAxMi44IDAgMjIuNTI4LTQuNjA4IDI5LjY5Ni0xMy4zMTJzMTAuNzUyLTIwLjk5MiAxMC43NTItMzYuMzUydi0xNDMuMzZjMC00LjA5Ni0xLjUzNi02LjY1Ni00LjA5Ni04LjcwNC0yLjU2LTIuMDQ4LTcuMTY4LTMuMDcyLTEzLjgyNC0zLjA3MmgtMTkuOTY4bDEuMDI0LTExLjI2NHpNMjcxLjM2IDQzOS44MDhjMi4wNDggMTAuNzUyIDMuNTg0IDIwLjk5MiA0LjA5NiAzMC43MiA3LjE2OC0xMS4yNjQgMTQuMzM2LTE4Ljk0NCAyMi4wMTYtMjMuNTUyIDcuNjgtNC42MDggMTYuMzg0LTcuMTY4IDI1LjA4OC03LjE2OCA5LjcyOCAwIDE4Ljk0NCAzLjA3MiAyNy42NDggOC43MDQgOC43MDQgNi4xNDQgMTUuODcyIDE0Ljg0OCAyMS41MDQgMjYuMTEyczguMTkyIDI0LjU3NiA4LjE5MiAzOC45MTJjMCAyMy4wNC02LjY1NiA0MS45ODQtMTkuOTY4IDU2LjMyLTExLjI2NCAxMi4yODgtMjQuNTc2IDE3LjkyLTM5LjkzNiAxNy45Mi04LjcwNCAwLTE2Ljg5Ni0yLjA0OC0yNC4wNjQtNi42NTYtNy4xNjgtNC42MDgtMTMuMzEyLTExLjI2NC0xOC45NDQtMjAuNDh2NTcuMzQ0YzAgNC42MDggMS4wMjQgNy42OCAzLjA3MiA5LjIxNiAyLjU2IDIuNTYgNi42NTYgMy41ODQgMTEuMjY0IDMuNTg0aDEwLjI0djEwLjc1MkgyMjUuMjh2LTEwLjc1MmgxMC4yNGM0LjYwOCAwIDguNzA0LTEuMDI0IDEwLjc1Mi0zLjA3MiAyLjU2LTIuMDQ4IDMuNTg0LTQuNjA4IDMuNTg0LTcuNjhWNDcyLjA2NGMwLTcuMTY4LTEuNTM2LTExLjc3Ni01LjEyLTE0Ljg0OC0zLjU4NC0zLjA3Mi05LjcyOC00LjYwOC0xOS45NjgtNC42MDh2LTEwLjI0bDQ2LjU5Mi0yLjU2eiBtNDMuNTIgMTMuODI0Yy0xMC43NTIgMC0yMC40OCA1LjEyLTI3LjY0OCAxNS44NzItNy42OCAxMC43NTItMTEuMjY0IDI2LjExMi0xMS4yNjQgNDYuMDggMCAyMC40OCAzLjU4NCAzNS4zMjggMTEuMjY0IDQ1LjA1NiA3LjE2OCA5LjcyOCAxNi44OTYgMTQuMzM2IDI4LjE2IDE0LjMzNiAxMC43NTIgMCAxOC45NDQtNC4wOTYgMjQuNTc2LTEyLjI4OCA3LjE2OC0xMC43NTIgMTEuMjY0LTI2LjYyNCAxMS4yNjQtNDcuNjE2IDAtMjIuMDE2LTMuMDcyLTM3Ljg4OC05LjcyOC00Ny4xMDQtNy42OC05LjcyOC0xNS44NzItMTQuMzM2LTI2LjYyNC0xNC4zMzZ6IG04Ni4wMTYtMTEuMjY0aDY4LjA5NnYxMC4yNGgtNi4xNDRjLTYuMTQ0IDAtMTAuMjQgMS4wMjQtMTIuMjg4IDIuNTYtMi4wNDggMS41MzYtMy4wNzIgMy41ODQtMy4wNzIgNi42NTYgMCAxLjUzNiAwLjUxMiAyLjU2IDEuMDI0IDQuMDk2bDM5LjQyNCA4NC45OTIgMjkuMTg0LTcwLjY1NmMyLjA0OC01LjEyIDMuMDcyLTkuNzI4IDMuMDcyLTE0Ljg0OCAwLTMuNTg0LTEuNTM2LTYuNjU2LTQuNjA4LTguNzA0LTMuMDcyLTIuMDQ4LTguNzA0LTMuNTg0LTE3LjQwOC00LjA5NnYtMTAuMjRoNTguODh2MTAuMjRjLTExLjI2NCAxLjAyNC0xOC45NDQgNi4xNDQtMjMuMDQgMTUuMzZsLTUyLjIyNCAxMjEuODU2Yy04LjcwNCAyMC40OC0xNy45MiAzNC44MTYtMjYuNjI0IDQyLjQ5Ni05LjIxNiA3LjY4LTE4Ljk0NCAxMS43NzYtMjkuMTg0IDExLjc3Ni03LjY4IDAtMTMuODI0LTIuMDQ4LTE4LjQzMi02LjE0NC00LjYwOC00LjA5Ni02LjY1Ni05LjIxNi02LjY1Ni0xNS4zNiAwLTQuNjA4IDEuNTM2LTguMTkyIDQuMDk2LTExLjI2NCAzLjA3Mi0zLjA3MiA2LjE0NC00LjYwOCAxMC43NTItNC42MDggMy41ODQgMCA3LjE2OCAxLjAyNCA5LjcyOCAzLjU4NCAyLjU2IDIuNTYgNC4wOTYgNS42MzIgNC4wOTYgOS4yMTYgMCAxLjAyNCAwIDIuNTYtMC41MTIgNC42MDgtMC41MTIgMS41MzYtMC41MTIgMi41Ni0wLjUxMiAzLjU4NCAwIDIuNTYgMS41MzYgMy41ODQgNC42MDggMy41ODQgMy41ODQgMCA3LjE2OC0xLjAyNCAxMS4yNjQtMy41ODQgNC4wOTYtMi41NiA4LjE5Mi02LjE0NCAxMS43NzYtMTEuNzc2czEwLjI0LTE3LjQwOCAxOC45NDQtMzUuMzI4TDQyMC44NjQgNDY1LjkyYy0yLjA0OC00LjA5Ni00LjA5Ni03LjE2OC03LjE2OC05LjIxNi0zLjA3Mi0yLjA0OC03LjE2OC0zLjA3Mi0xMi44LTQuMDk2di0xMC4yNHogbTIwNi44NDgtNTcuODU2aDEwLjI0djU3Ljg1Nmg0NS41Njh2MTMuODI0aC00NS41Njh2OTAuNjI0YzAgNy42OCAyLjA0OCAxMy44MjQgNS42MzIgMTcuOTIgMy41ODQgNC4wOTYgOC43MDQgNi4xNDQgMTQuMzM2IDYuMTQ0IDYuNjU2IDAgMTIuOC0zLjA3MiAxNy40MDgtOS43MjggNC42MDgtNi4xNDQgNy42OC0xNi44OTYgOC43MDQtMzEuMjMyaDEwLjI0Yy0wLjUxMiAxOC45NDQtNS4xMiAzMi43NjgtMTIuOCA0MS45ODQtOC4xOTIgOS4yMTYtMTguNDMyIDEzLjgyNC0zMS4yMzIgMTMuODI0LTExLjc3NiAwLTIwLjk5Mi0zLjA3Mi0yNy42NDgtOS43MjgtNi42NTYtNi4xNDQtOS43MjgtMTQuODQ4LTkuNzI4LTI1LjA4OFY0NTYuMTkySDU2OC4zMlY0NDUuNDRjMTEuMjY0LTIuMDQ4IDE5Ljk2OC02LjY1NiAyNS42LTEzLjgyNCA4LjE5Mi0xMS4yNjQgMTMuMzEyLTI2LjYyNCAxMy44MjQtNDcuMTA0eiBtMjE2LjA2NCAxMzAuMDQ4aC0xMDEuMzc2YzAuNTEyIDIxLjUwNCA0LjYwOCAzNi44NjQgMTIuMjg4IDQ1LjU2OCA4LjcwNCA5LjcyOCAxOS40NTYgMTQuODQ4IDMzLjI4IDE0Ljg0OCAxOS45NjggMCAzNS44NC0xMS4yNjQgNDcuNjE2LTMzLjc5Mmw5LjcyOCA0LjA5NmMtMTQuODQ4IDI4LjY3Mi0zNS44NCA0My4wMDgtNjQgNDMuMDA4LTE4Ljk0NCAwLTM0LjgxNi02LjY1Ni00Ny42MTYtMjAuNDgtMTIuOC0xMy44MjQtMTkuNDU2LTMxLjIzMi0xOS40NTYtNTIuNzM2IDAtMjMuMDQgNi4xNDQtNDEuNDcyIDE4Ljk0NC01NS44MDggMTIuOC0xNC4zMzYgMjguNjcyLTIwLjk5MiA0Ny4xMDQtMjAuOTkyIDEzLjgyNCAwIDI1LjYgMy41ODQgMzUuMzI4IDEwLjc1MiA5LjcyOCA3LjE2OCAxNy40MDggMTcuNDA4IDIyLjUyOCAzMC4yMDggMy41ODQgOS4yMTYgNS42MzIgMjAuOTkyIDUuNjMyIDM1LjMyOHogbS0xMDEuMzc2LTEwLjc1Mmg2MS40NGMzLjU4NCAwIDYuNjU2LTEuMDI0IDguNzA0LTMuNTg0IDIuMDQ4LTIuNTYgMy4wNzItNi42NTYgMy4wNzItMTIuOCAwLTExLjI2NC0zLjU4NC0yMC40OC0xMC4yNC0yOC4xNnMtMTQuODQ4LTExLjc3Ni0yNC41NzYtMTEuNzc2Yy0xMC4yNCAwLTE5LjQ1NiA0LjYwOC0yNi42MjQgMTMuODI0LTcuNjggOS43MjgtMTEuNzc2IDIzLjU1Mi0xMS43NzYgNDIuNDk2eiBtMTIwLjgzMi02MS40NGw1MS4yLTIuNTZ2NTcuMzQ0YzUuNjMyLTE4Ljk0NCAxMS43NzYtMzMuMjggMTkuNDU2LTQzLjAwOCA3LjY4LTkuNzI4IDE2Ljg5Ni0xNC4zMzYgMjguNjcyLTE0LjMzNiA3LjY4IDAgMTMuODI0IDIuNTYgMTguNDMyIDcuMTY4IDQuNjA4IDQuNjA4IDYuNjU2IDEwLjc1MiA2LjY1NiAxOC45NDQgMCA2LjE0NC0xLjUzNiAxMS4yNjQtNC42MDggMTQuODQ4LTMuMDcyIDMuNTg0LTcuMTY4IDUuMTItMTEuNzc2IDUuMTItNC42MDggMC04LjE5Mi0xLjUzNi0xMC43NTItNC42MDgtMi41Ni0zLjA3Mi00LjA5Ni03LjE2OC00LjA5Ni0xMi4yODggMC0zLjU4NCAxLjAyNC02LjY1NiAyLjU2LTkuMjE2czIuMDQ4LTQuMDk2IDIuMDQ4LTQuNjA4YzAtMS41MzYtMS4wMjQtMi4wNDgtMy4wNzItMi4wNDgtNC4wOTYgMC04LjcwNCAyLjU2LTEzLjgyNCA3LjE2OC03LjE2OCA2LjY1Ni0xMi44IDE1Ljg3Mi0xNi44OTYgMjcuNjQ4LTYuMTQ0IDE4LjQzMi05LjIxNiAzMi43NjgtOS4yMTYgNDQuMDMydjMwLjIwOGMwIDMuNTg0IDEuMDI0IDYuMTQ0IDMuNTg0IDcuNjggMi41NiAyLjA0OCA2LjY1NiAyLjU2IDEyLjI4OCAyLjU2aDE3LjkydjExLjI2NGgtODguMDY0di0xMS4yNjRoMTMuODI0YzQuNjA4IDAgOC4xOTItMS4wMjQgMTAuNzUyLTIuNTYgMi41Ni0yLjA0OCAzLjU4NC00LjA5NiAzLjU4NC02LjY1NlY0NzMuMDg4YzAtNi42NTYtMS41MzYtMTEuNzc2LTQuNjA4LTE0Ljg0OHMtNy4xNjgtNC42MDgtMTIuOC00LjYwOGgtMTIuMjg4bDEuMDI0LTExLjI2NHoiLz48L3N2Zz4=;imageBackground=#FFB366;fontFamily=Helvetica;" parent="WIyWlLk6GJQsqaUBKTNV-1" vertex="1">
          <mxGeometry x="1444.19" y="620" width="45.81" height="45.81" as="geometry" />
        </mxCell>
        <mxCell id="iwcB10hV3ur6C0tzs4EO-105" value="&lt;font style=&quot;&quot;&gt;&lt;span style=&quot;font-size: 22px;&quot;&gt;workflow&lt;/span&gt;&lt;br&gt;&lt;i style=&quot;&quot;&gt;&lt;font style=&quot;font-size: 11px;&quot;&gt;figure 5&lt;/font&gt;&lt;/i&gt;&lt;br&gt;&lt;/font&gt;" style="text;html=1;strokeColor=none;fillColor=none;align=center;verticalAlign=middle;whiteSpace=wrap;rounded=0;fontFamily=Helvetica;" parent="WIyWlLk6GJQsqaUBKTNV-1" vertex="1">
          <mxGeometry x="1181.8200000000002" y="1019.95" width="98.18150943396228" height="49.09090909090909" as="geometry" />
        </mxCell>
        <mxCell id="iwcB10hV3ur6C0tzs4EO-109" value="&lt;font style=&quot;font-size: 16px;&quot;&gt;InferenceData&lt;/font&gt;" style="rounded=1;whiteSpace=wrap;html=1;fontSize=22;glass=0;strokeWidth=1;shadow=0;align=center;fontFamily=Helvetica;" parent="WIyWlLk6GJQsqaUBKTNV-1" vertex="1">
          <mxGeometry x="1165.81" y="909" width="120" height="40" as="geometry" />
        </mxCell>
        <mxCell id="iwcB10hV3ur6C0tzs4EO-117" value="" style="group;fontFamily=Helvetica;" parent="WIyWlLk6GJQsqaUBKTNV-1" vertex="1" connectable="0">
          <mxGeometry x="1330" y="770" width="140.54" height="260" as="geometry" />
        </mxCell>
        <mxCell id="iwcB10hV3ur6C0tzs4EO-125" value="" style="group;fontFamily=Helvetica;" parent="iwcB10hV3ur6C0tzs4EO-117" vertex="1" connectable="0">
          <mxGeometry x="-9.46" y="-10" width="150" height="270" as="geometry" />
        </mxCell>
        <mxCell id="iwcB10hV3ur6C0tzs4EO-123" value="" style="rounded=0;whiteSpace=wrap;html=1;fillColor=#DEF2DD;strokeColor=#82b366;fontFamily=Helvetica;" parent="iwcB10hV3ur6C0tzs4EO-125" vertex="1">
          <mxGeometry width="150" height="270" as="geometry" />
        </mxCell>
        <mxCell id="iwcB10hV3ur6C0tzs4EO-111" value="diagnosis" style="rounded=1;whiteSpace=wrap;html=1;fontSize=22;glass=0;strokeWidth=1;shadow=0;align=center;fontFamily=Helvetica;" parent="iwcB10hV3ur6C0tzs4EO-125" vertex="1">
          <mxGeometry x="10.534380165289257" y="10" width="128.92561983471074" height="40" as="geometry" />
        </mxCell>
        <mxCell id="iwcB10hV3ur6C0tzs4EO-113" value="comparision" style="rounded=1;whiteSpace=wrap;html=1;fontSize=22;glass=0;strokeWidth=1;shadow=0;align=center;fontFamily=Helvetica;" parent="iwcB10hV3ur6C0tzs4EO-125" vertex="1">
          <mxGeometry x="9.46" y="80" width="128.92561983471074" height="40" as="geometry" />
        </mxCell>
        <mxCell id="iwcB10hV3ur6C0tzs4EO-119" style="edgeStyle=orthogonalEdgeStyle;rounded=0;orthogonalLoop=1;jettySize=auto;html=1;exitX=0.5;exitY=1;exitDx=0;exitDy=0;entryX=0.5;entryY=0;entryDx=0;entryDy=0;fontFamily=Helvetica;" parent="iwcB10hV3ur6C0tzs4EO-125" source="iwcB10hV3ur6C0tzs4EO-111" target="iwcB10hV3ur6C0tzs4EO-113" edge="1">
          <mxGeometry relative="1" as="geometry" />
        </mxCell>
        <mxCell id="iwcB10hV3ur6C0tzs4EO-114" value="ppc" style="rounded=1;whiteSpace=wrap;html=1;fontSize=22;glass=0;strokeWidth=1;shadow=0;align=center;fontFamily=Helvetica;" parent="iwcB10hV3ur6C0tzs4EO-125" vertex="1">
          <mxGeometry x="10.534380165289257" y="150" width="128.92561983471074" height="40" as="geometry" />
        </mxCell>
        <mxCell id="iwcB10hV3ur6C0tzs4EO-120" style="edgeStyle=orthogonalEdgeStyle;rounded=0;orthogonalLoop=1;jettySize=auto;html=1;exitX=0.5;exitY=1;exitDx=0;exitDy=0;entryX=0.5;entryY=0;entryDx=0;entryDy=0;fontFamily=Helvetica;" parent="iwcB10hV3ur6C0tzs4EO-125" source="iwcB10hV3ur6C0tzs4EO-113" target="iwcB10hV3ur6C0tzs4EO-114" edge="1">
          <mxGeometry relative="1" as="geometry" />
        </mxCell>
        <mxCell id="iwcB10hV3ur6C0tzs4EO-115" value="inference" style="rounded=1;whiteSpace=wrap;html=1;fontSize=22;glass=0;strokeWidth=1;shadow=0;align=center;fontFamily=Helvetica;" parent="iwcB10hV3ur6C0tzs4EO-125" vertex="1">
          <mxGeometry x="10.534380165289257" y="219" width="128.92561983471074" height="40" as="geometry" />
        </mxCell>
        <mxCell id="iwcB10hV3ur6C0tzs4EO-121" style="edgeStyle=orthogonalEdgeStyle;rounded=0;orthogonalLoop=1;jettySize=auto;html=1;exitX=0.5;exitY=1;exitDx=0;exitDy=0;entryX=0.5;entryY=0;entryDx=0;entryDy=0;fontFamily=Helvetica;" parent="iwcB10hV3ur6C0tzs4EO-125" source="iwcB10hV3ur6C0tzs4EO-114" target="iwcB10hV3ur6C0tzs4EO-115" edge="1">
          <mxGeometry relative="1" as="geometry" />
        </mxCell>
        <mxCell id="iwcB10hV3ur6C0tzs4EO-118" style="edgeStyle=orthogonalEdgeStyle;rounded=0;orthogonalLoop=1;jettySize=auto;html=1;fillColor=#f8cecc;strokeColor=#b85450;strokeWidth=5;exitX=1;exitY=0.5;exitDx=0;exitDy=0;fontFamily=Helvetica;" parent="WIyWlLk6GJQsqaUBKTNV-1" edge="1">
          <mxGeometry relative="1" as="geometry">
            <mxPoint x="1161.0000000000002" y="886.57" as="sourcePoint" />
            <mxPoint x="1301" y="887" as="targetPoint" />
          </mxGeometry>
        </mxCell>
        <mxCell id="iwcB10hV3ur6C0tzs4EO-124" value="" style="group;fontFamily=Helvetica;" parent="WIyWlLk6GJQsqaUBKTNV-1" vertex="1" connectable="0">
          <mxGeometry x="1000" y="760" width="150" height="270" as="geometry" />
        </mxCell>
        <mxCell id="iwcB10hV3ur6C0tzs4EO-122" value="" style="rounded=0;whiteSpace=wrap;html=1;fillColor=#DEF2DD;strokeColor=#82b366;fontFamily=Helvetica;" parent="iwcB10hV3ur6C0tzs4EO-124" vertex="1">
          <mxGeometry width="140" height="270" as="geometry" />
        </mxCell>
        <mxCell id="iwcB10hV3ur6C0tzs4EO-100" value="data" style="rounded=1;whiteSpace=wrap;html=1;fontSize=22;glass=0;strokeWidth=1;shadow=0;align=center;fontFamily=Helvetica;" parent="iwcB10hV3ur6C0tzs4EO-124" vertex="1">
          <mxGeometry x="10" y="30" width="120" height="40" as="geometry" />
        </mxCell>
        <mxCell id="iwcB10hV3ur6C0tzs4EO-103" value="&lt;p style=&quot;line-height: 70%;&quot;&gt;&lt;font style=&quot;font-size: 14px;&quot;&gt;model&lt;br&gt;specification&lt;/font&gt;&lt;/p&gt;" style="rounded=1;whiteSpace=wrap;html=1;fontSize=22;glass=0;strokeWidth=1;shadow=0;align=center;fontFamily=Helvetica;" parent="iwcB10hV3ur6C0tzs4EO-124" vertex="1">
          <mxGeometry x="10" y="115" width="120" height="40" as="geometry" />
        </mxCell>
        <mxCell id="iwcB10hV3ur6C0tzs4EO-107" style="edgeStyle=orthogonalEdgeStyle;rounded=0;orthogonalLoop=1;jettySize=auto;html=1;exitX=0.5;exitY=1;exitDx=0;exitDy=0;fontFamily=Helvetica;" parent="iwcB10hV3ur6C0tzs4EO-124" source="iwcB10hV3ur6C0tzs4EO-100" target="iwcB10hV3ur6C0tzs4EO-103" edge="1">
          <mxGeometry relative="1" as="geometry" />
        </mxCell>
        <mxCell id="iwcB10hV3ur6C0tzs4EO-104" value="fitting" style="rounded=1;whiteSpace=wrap;html=1;fontSize=22;glass=0;strokeWidth=1;shadow=0;align=center;fontFamily=Helvetica;" parent="iwcB10hV3ur6C0tzs4EO-124" vertex="1">
          <mxGeometry x="10" y="190" width="120" height="40" as="geometry" />
        </mxCell>
        <mxCell id="iwcB10hV3ur6C0tzs4EO-108" style="edgeStyle=orthogonalEdgeStyle;rounded=0;orthogonalLoop=1;jettySize=auto;html=1;exitX=0.5;exitY=1;exitDx=0;exitDy=0;entryX=0.5;entryY=0;entryDx=0;entryDy=0;fontFamily=Helvetica;" parent="iwcB10hV3ur6C0tzs4EO-124" source="iwcB10hV3ur6C0tzs4EO-103" target="iwcB10hV3ur6C0tzs4EO-104" edge="1">
          <mxGeometry relative="1" as="geometry" />
        </mxCell>
        <mxCell id="iwcB10hV3ur6C0tzs4EO-135" value="" style="group;fontFamily=Helvetica;" parent="WIyWlLk6GJQsqaUBKTNV-1" vertex="1" connectable="0">
          <mxGeometry x="1350" y="1031" width="81.13000000000011" height="29" as="geometry" />
        </mxCell>
        <mxCell id="iwcB10hV3ur6C0tzs4EO-126" value="&lt;font style=&quot;&quot;&gt;&lt;font style=&quot;font-size: 18px;&quot;&gt;ArviZ&lt;/font&gt;&lt;br&gt;&lt;/font&gt;" style="text;html=1;strokeColor=none;fillColor=none;align=center;verticalAlign=middle;whiteSpace=wrap;rounded=0;fontFamily=Helvetica;" parent="iwcB10hV3ur6C0tzs4EO-135" vertex="1">
          <mxGeometry width="68.18" height="29" as="geometry" />
        </mxCell>
        <mxCell id="iwcB10hV3ur6C0tzs4EO-134" value="" style="shape=image;verticalLabelPosition=bottom;labelBackgroundColor=default;verticalAlign=top;aspect=fixed;imageAspect=0;image=data:image/x-icon,AAABAAEAJSAAAAEAIACoEwAAFgAAACgAAAAlAAAAQAAAAAEAIAAAAAAAAAAAAAAAAAAAAAAAAAAAAAAAAAAAAAAAAAAAAAAAAAAAAAAAAAAAAAAAAAAAAAAAAAAAAAAAAAAAAAAAAAAAAAAAAAAAAAAAAAAAAAAAAAAAAAAAAAAAAAAAAAAAAAAAAAAAAAAAAAAAAAAAAAAAAAAAAAAAAAAAAAAAAAAAAAAAAAAAAAAAAAAAAAAAAAAAAAAAAAAAAAAAAAAAAAAAAAAAAAAAAAAAAAAAAAAAAAAAAAAAAAAAAAAAAAAAAAAAAAAAAAAAAAAAAAAAAAAAAOLBRxXiwUdH4sFHZeLBR5riwUeZ4sFHl+LBR2biwUdS4sFHFAAAAAAAAAAAAAAAAAAAAAAAAAAAAAAAAAAAAAAAAAAAAAAAAAAAAAAAAAAAAAAAAAAAAAAAAAAAAAAAAAAAAAAAAAAAAAAAAAAAAAAAAAAAAAAAAAAAAAAAAAAAAAAAAAAAAAAAAAAA4sFHXOLBR7jiwUf/4sFH/+LBR//iwUf/4sFH/+LBR//iwUf/4sFH/+LBR//iwUfM2rpCXL+/ADO/vwAzv78AJAAAAAAAAAAAAAAAAAAAAAAAAAAAAAAAAAAAAAAAAAAAAAAAAAAAAAAAAAAAAAAAAAAAAAAAAAAAAAAAAAAAAAAAAAAAAAAAAAAAAADiwUcz4sFH1uLBR//iwUf/4sFH/+LBR//iwUf/4sFH/+LBR//iwUf/4sFH/+LBR//iwUf/yqs6/5p9F/+ciAv/urgC/7+/AP+/vwD1v78AsL+/AFW/vwAEAAAAAAAAAAAAAAAAAAAAAAAAAAAAAAAAAAAAAAAAAAAAAAAAAAAAAAAAAAAAAAAAAAAAAAAAAADiwUdl4sFH9eLBR//iwUf/4sFH/+LBR//iwUf/4sFH/+LBR//iwUf/4sFH/+LBR//fv0b/vp8y/5F1Df+RdQ3/kXUN/5eBDP+6uAL/v78A/7+/AP+/vwD/v78A67+/AGi/vwAKAAAAAAAAAAAAAAAAAAAAAAAAAAAAAAAAAAAAAAAAAAAAAAAAAAAAAAAAAADiwUc54sFH+uLBR//iwUf/4sFH/+LBR//iwUf/4sFH/+LBR//iwUf/4sFH/9S0P/++nzL/mn0X/5F1Df+RdQ3/kXUN/5F1Df+RdQ3/moUL/729Af+/vwD/v78A/7+/AP+/vwD/v78A57+/AFIAAAAAAAAAAAAAAAAAAAAAAAAAAAAAAAAAAAAAAAAAAAAAAAAAAAAA4sFH1uLBR//iwUf/4sFH/9q6Q//PsD3/x6g4/7qcMP+0liz/pYki/5V5E/+RdQ3/kXUN/5F1Df+RdQ3/kXUN/5F1Df+RdQ3/kXUN/5F1Df+onAf/v78A/7+/AP+/vwD/v78A/7+/AP+/vwD/v78Arb+/AAoAAAAAAAAAAAAAAAAAAAAAAAAAAAAAAAAAAAAA4sFHR+LBR//WtkH/t5ku/5x/Gf+RdQ3/kXUN/5F1Df+RdQ3/kXUN/5F1Df+RdQ3/kXUN/5F1Df+RdQ3/kXUN/5F1Df+RdQ3/kXUN/5F1Df+RdQ3/kXUN/62kBv+/vwD/v78A/7+/AP+/vwD/v78A/7+/AP+/vwDEv78ADwAAAAAAAAAAAAAAAAAAAAAAAAAAAAAAAN28RIC3mS7/kXUN/5F1Df+RdQ3/kXUN/5F1Df+RdQ3/kXUN/5F1Df+RdQ3/kXUN/5F1Df+RdQ3/kXUN/5F1Df+RdQ3/kXUN/5F1Df+RdQ3/kXUN/5F1Df+RdQ3/nIgL/6meB/+wqQX/urgC/7+/AP+/vwD/v78A/7+/AMK/vwAKAAAAAAAAAAAAAAAAAAAAAL+/AAqjkRLMkXUN/5F1Df+RdQ3/kXUN/5F1Df+RdQ3/kXUN/5F1Df+RdQ3/kXUN/5F1Df+RdQ3/kXUN/5F1Df+RdQ3/kXUN/5F1Df+RdQ3/kXUN/5F1Df+RdQ3/kXUN/5F1Df+RdQ3/kXUN/5F1Df+ciAv/sKkF/7+/AP+/vwD/v78AhQAAAAAAAAAAAAAAAAAAAAC/vwCFpZgI/5F1Df+RdQ3/kXUN/5F1Df+RdQ3/kXUN/5F1Df+RdQ3/kXUN/5F1Df+RdQ3/kXUN/5F1Df+RdQ3/kXUN/5F1Df+RdQ3/kXUN/5F1Df+RdQ3/kXUN/5F1Df+RdQ3/kXUN/5F1Df+RdQ3/kXUN/5F1Df+ZhAv/ubYC/7+/APW/vwAUAAAAAAAAAAC/vwAUv78A9a6mBf+RdQ3/kXUN/5F1Df+RdQ3/kXUN/5F1Df+RdQ3/kXUN/5F1Df+RdQ3/kXUN/5F1Df+RdQ3/kXUN/5F1Df+RdQ3/kXUN/5F1Df+RdQ3/kXUN/5F1Df+RdQ3/kXUN/5F1Df+RdQ3/kXUN/5F1Df+RdQ3/kXUN/5N5Df+3swP/v78AbQAAAAAAAAAAv78AXL+/AP+7uQH/kXUN/5F1Df+RdQ3/kXUN/5F1Df+RdQ3/kXUN/5F1Df+RdQ3/kXUN/5F1Df+RdQ3/kXUN/5F1Df+RdQ3/kXUN/5F1Df+RdQ3/kXUN/5F1Df+RdQ3/kXUN/5F1Df+RdQ3/kXUN/5F1Df+RdQ3/kXUN/5F1Df+RdQ3/moUL/7+/AJkAAAAAAAAAAL+/AJm/vwD/v78A/6idB/+RdQ3/kXUN/5F1Df+RdQ3/kXUN/5F1Df+RdQ3/kXUN/5F1Df+RdQ3/kXUN/5F1Df+RdQ3/kXUN/5F1Df+RdQ3/kXUN/5F1Df+RdQ3/kXUN/5F1Df+RdQ3/kXUN/5F1Df+RdQ3/kXUN/5F1Df+RdQ3/kXUN/5F1Df+roAaSAAAAAAAAAAC/vwCZv78A/7+/AP+9vQH/nowK/5F1Df+RdQ3/kXUN/5F1Df+RdQ3/kXUN/5F1Df+RdQ3/kXUN/5F1Df+RdQ3/kXUN/5F1Df+RdQ3/kXUN/5F1Df+RdQ3/kXUN/5F1Df+RdQ3/kXUN/5F1Df+RdQ3/kXUN/5F1Df+RdQ3/kXUN/5F1Df+RdQ3/pYkiZgAAAAAAAAAAv78Amb+/AP+/vwD/v78A/729Af+ejAr/kXUN/5F1Df+RdQ3/kXUN/5F1Df+RdQ3/kXUN/5F1Df+RdQ3/kXUN/5F1Df+RdQ3/kXUN/5F1Df+RdQ3/kXUN/5F1Df+RdQ3/kXUN/5F1Df+RdQ3/kXUN/5F1Df+RdQ3/kXUN/5F1Df+RdQ3/ooUf/+LBR1EAAAAAAAAAAL+/AIW/vwD/v78A/7+/AP+/vwD/vb0B/56MCv+RdQ3/kXUN/5F1Df+RdQ3/kXUN/5F1Df+RdQ3/kXUN/5F1Df+RdQ3/kXUN/5F1Df+RdQ3/kXUN/5F1Df+RdQ3/kXUN/5F1Df+RdQ3/kXUN/5F1Df+RdQ3/kXUN/5F1Df+RdQ3/lHgR/9OzP//iwUcUAAAAAAAAAAC/vwA2v78A/7+/AP+/vwD/v78A/7+/AP+9vQH/mIEM/5F1Df+RdQ3/kXUN/5F1Df+RdQ3/kXUN/5F1Df+RdQ3/kXUN/5F1Df+RdQ3/kXUN/5F1Df+RdQ3/kXUN/5F1Df+RdQ3/kXUN/5F1Df+RdQ3/kXUN/5F1Df+RdQ3/kXUN/8eoOP/iwUefAAAAAAAAAAAAAAAAAAAAAL+/AMK/vwD/v78A/7+/AP+/vwD/v78A/7ezA/+RdQ3/kXUN/5F1Df+RdQ3/kXUN/5F1Df+RdQ3/kXUN/5F1Df+RdQ3/kXUN/5F1Df+RdQ3/kXUN/5F1Df+RdQ3/kXUN/5F1Df+RdQ3/kXUN/5F1Df+RdQ3/lXkT/9CwPf/iwUfg4sFHCgAAAAAAAAAAAAAAAAAAAAC/vwAfv78A5L+/AP+/vwD/v78A/7+/AP+/vwD/pJUI/5F1Df+RdQ3/kXUN/5F1Df+RdQ3/kXUN/5F1Df+RdQ3/kXUN/5F1Df+RdQ3/kXUN/5F1Df+RdQ3/kXUN/5F1Df+RdQ3/kXUN/5F1Df+RdQ3/rZAn/9q6Q//iwUfg4sFHHwAAAAAAAAAAAAAAAAAAAAAAAAAAAAAAAL+/AB6/vwDWv78A/7+/AP+/vwD/v78A/7ezA/+RdQ3/kXUN/5F1Df+RdQ3/kXUN/5F1Df+RdQ3/kXUN/5F1Df+RdQ3/kXUN/5F1Df+RdQ3/kXUN/5F1Df+RdQ3/kXUN/5F1Df+afRf/yKk4/+LBR//iwUe34sFHEgAAAAAAAAAAAAAAAAAAAAAAAAAAAAAAAAAAAAAAAAAAv78ACr+/AIW/vwD1v78A/7+/AP+/vwD/l4EM/5F1Df+RdQ3/kXUN/5F1Df+RdQ3/kXUN/5F1Df+RdQ3/kXUN/5F1Df+RdQ3/kXUN/5F1Df+RdQ3/kXUN/5F1Df+1ly3/3bxE/+LBR//iwUd6AAAAAAAAAAAAAAAAAAAAAAAAAAAAAAAAAAAAAAAAAAAAAAAAAAAAAAAAAAAAAAAAv78AHb+/AKO/vwD/v78A/6SVCP+RdQ3/kXUN/5F1Df+RdQ3/kXUN/5F1Df+RdQ3/kXUN/5F1Df+RdQ3/kXUN/5F1Df+RdQ3/kXUN/5p9F//Nrjz/4sFH/+LBR/TiwUc9AAAAAAAAAAAAAAAAAAAAAAAAAAAAAAAAAAAAAAAAAAAAAAAAAAAAAAAAAAAAAAAAAAAAAAAAAAAAAAAAv78AR7+/AOOpngf/kXUN/5F1Df+RdQ3/kXUN/5F1Df+RdQ3/kXUN/5F1Df+RdQ3/kXUN/5F1Df+RdQ3/kXUN/6aKIv/aukP/4sFH/+LBR+PiwUceAAAAAAAAAAAAAAAAAAAAAAAAAAAAAAAAAAAAAAAAAAAAAAAAAAAAAAAAAAAAAAAAAAAAAAAAAAAAAAAAAAAAAAAAAAC/vwAfsqwE4JF1Df+RdQ3/kXUN/5F1Df+RdQ3/kXUN/5F1Df+RdQ3/kXUN/5F1Df+RdQ3/kXUN/6mMJf/fv0b/4sFH/+LBR//iwUc9AAAAAAAAAAAAAAAAAAAAAAAAAAAAAAAAAAAAAAAAAAAAAAAAAAAAAAAAAAAAAAAAAAAAAAAAAAAAAAAAAAAAAAAAAAAAAAAAAAAAAL+/AB6UegzhkXUN/5F1Df+RdQ3/kXUN/5F1Df+RdQ3/kXUN/5F1Df+RdQ3/kXUN/7qcMP/fv0b/4sFH/+LBR//iwUeTAAAAAAAAAAAAAAAAAAAAAAAAAAAAAAAAAAAAAAAAAAAAAAAAAAAAAAAAAAAAAAAAAAAAAAAAAAAAAAAAAAAAAAAAAAAAAAAAAAAAAAAAAAAAAAAAxKY3R5+DHf+RdQ3/kXUN/5F1Df+RdQ3/kXUN/5F1Df+RdQ3/ooUf/9CwPf/iwUf/4sFH/+LBR//iwUf04sFHFAAAAAAAAAAAAAAAAAAAAAAAAAAAAAAAAAAAAAAAAAAAAAAAAAAAAAAAAAAAAAAAAAAAAAAAAAAAAAAAAAAAAAAAAAAAAAAAAAAAAAAAAAAAAAAAAAAAAADcu0RmxKU2/6mMJf+WehP/kXUN/6OHIP+3mS7/z7A9/+LBR//iwUf/4sFH/+LBR//iwUf/4sFHcAAAAAAAAAAAAAAAAAAAAAAAAAAAAAAAAAAAAAAAAAAAAAAAAAAAAAAAAAAAAAAAAAAAAAAAAAAAAAAAAAAAAAAAAAAAAAAAAAAAAAAAAAAAAAAAAAAAAAAAAAAAAAAAAOLBR1ziwUf14sFH/+LBR//iwUf/4sFH/+LBR//iwUf/4sFH/+LBR//iwUf/4sFHuAAAAAAAAAAAAAAAAAAAAAAAAAAAAAAAAAAAAAAAAAAAAAAAAAAAAAAAAAAAAAAAAAAAAAAAAAAAAAAAAAAAAAAAAAAAAAAAAAAAAAAAAAAAAAAAAAAAAAAAAAAAAAAAAAAAAAAAAAAA4sFHHOLBR6LiwUf14sFH/+LBR//iwUf/4sFH/+LBR//iwUf/4sFHmeLBRwoAAAAAAAAAAAAAAAAAAAAAAAAAAAAAAAAAAAAAAAAAAAAAAAAAAAAAAAAAAAAAAAAAAAAAAAAAAAAAAAAAAAAAAAAAAAAAAAAAAAAAAAAAAAAAAAAAAAAAAAAAAAAAAAAAAAAAAAAAAAAAAAAAAAAA4sFHDeLBR1LiwUeF4sFHmeLBR5niwUdx4sFHHwAAAAAAAAAAAAAAAAAAAAAAAAAAAAAAAAAAAAAAAAAAAAAAAAAAAAAAAAAAAAAAAAAAAAAAAAAAAAAAAAAAAAAAAAAAAAAAAAAAAAAAAAAAAAAAAAAAAAAAAAAAAAAAAAAAAAAAAAAAAAAAAAAAAAAAAAAAAAAAAAAAAAAAAAAAAAAAAAAAAAAAAAAAAAAAAAAAAAAAAAAAAAAAAAAAAAAAAAAAAAAAAAAAAAAAAAAAAAAAAAAAAAAAAAAAAAAAAAAAAAAAAAAAAAAAAP/////4AAAA/8Af//gAAAD/AAD/+AAAAPwAAA/4AAAA+AAAA/gAAADwAAAB+AAAAPAAAAB4AAAA4AAAADgAAADgAAAAGAAAAMAAAAAYAAAAwAAAAAgAAACAAAAACAAAAIAAAAAIAAAAgAAAAAgAAACAAAAACAAAAIAAAAAIAAAAgAAAAAgAAACAAAAAGAAAAMAAAAAYAAAAwAAAADgAAADgAAAAeAAAAPAAAAH4AAAA/AAAA/gAAAD/AAAH+AAAAP+AAA/4AAAA/8AAH/gAAAD/4AAf+AAAAP/wAD/4AAAA//gAf/gAAAD//AB/+AAAAP//Af/4AAAA//////gAAAA=;fontFamily=Helvetica;" parent="iwcB10hV3ur6C0tzs4EO-135" vertex="1">
          <mxGeometry x="58" y="4.5" width="23.13" height="20" as="geometry" />
        </mxCell>
        <mxCell id="iwcB10hV3ur6C0tzs4EO-137" value="" style="group;fontFamily=Helvetica;" parent="WIyWlLk6GJQsqaUBKTNV-1" vertex="1" connectable="0">
          <mxGeometry x="1019.9999999999999" y="1030" width="98.12000000000012" height="29" as="geometry" />
        </mxCell>
        <mxCell id="iwcB10hV3ur6C0tzs4EO-128" value="" style="shape=image;verticalLabelPosition=bottom;labelBackgroundColor=default;verticalAlign=top;aspect=fixed;imageAspect=0;image=https://hddm.readthedocs.io/en/latest/_images/DDM.svg;fontFamily=Helvetica;" parent="iwcB10hV3ur6C0tzs4EO-137" vertex="1">
          <mxGeometry x="62.180000000000064" y="5.5" width="35.94" height="20" as="geometry" />
        </mxCell>
        <mxCell id="iwcB10hV3ur6C0tzs4EO-136" value="&lt;font style=&quot;&quot;&gt;&lt;span style=&quot;font-size: 18px;&quot;&gt;HDDM&lt;/span&gt;&lt;br&gt;&lt;/font&gt;" style="text;html=1;strokeColor=none;fillColor=none;align=center;verticalAlign=middle;whiteSpace=wrap;rounded=0;fontFamily=Helvetica;" parent="iwcB10hV3ur6C0tzs4EO-137" vertex="1">
          <mxGeometry width="68.18" height="29" as="geometry" />
        </mxCell>
        <mxCell id="iwcB10hV3ur6C0tzs4EO-143" style="edgeStyle=orthogonalEdgeStyle;rounded=0;orthogonalLoop=1;jettySize=auto;html=1;entryX=0.467;entryY=0.026;entryDx=0;entryDy=0;entryPerimeter=0;curved=1;fontFamily=Helvetica;" parent="WIyWlLk6GJQsqaUBKTNV-1" source="iwcB10hV3ur6C0tzs4EO-23" target="iwcB10hV3ur6C0tzs4EO-106" edge="1">
          <mxGeometry relative="1" as="geometry">
            <Array as="points">
              <mxPoint x="1070" y="730" />
              <mxPoint x="1230" y="730" />
            </Array>
          </mxGeometry>
        </mxCell>
        <mxCell id="iwcB10hV3ur6C0tzs4EO-146" style="edgeStyle=orthogonalEdgeStyle;rounded=0;orthogonalLoop=1;jettySize=auto;html=1;fontFamily=Helvetica;" parent="WIyWlLk6GJQsqaUBKTNV-1" source="iwcB10hV3ur6C0tzs4EO-109" edge="1">
          <mxGeometry relative="1" as="geometry">
            <mxPoint x="1225.776460535386" y="887.7764246323529" as="targetPoint" />
          </mxGeometry>
        </mxCell>
        <mxCell id="iwcB10hV3ur6C0tzs4EO-149" value="&lt;font color=&quot;#ea6b66&quot; style=&quot;font-size: 20px;&quot;&gt;dockerHDDM&lt;/font&gt;" style="edgeLabel;html=1;align=center;verticalAlign=middle;resizable=0;points=[];labelBackgroundColor=none;fontFamily=Helvetica;" parent="WIyWlLk6GJQsqaUBKTNV-1" vertex="1" connectable="0">
          <mxGeometry x="1304.9999999999998" y="209.99526315789478" as="geometry">
            <mxPoint x="105" y="57" as="offset" />
          </mxGeometry>
        </mxCell>
      </root>
    </mxGraphModel>
  </diagram>
</mxfile>
